<?xml version="1.0" standalone="no"?>
<!DOCTYPE svg PUBLIC "-//W3C//DTD SVG 20010904//EN"
 "http://www.w3.org/TR/2001/REC-SVG-20010904/DTD/svg10.dtd">
<svg version="1.0" xmlns="http://www.w3.org/2000/svg"
 width="1536.000000pt" height="1024.000000pt" viewBox="0 0 1536.000000 1024.000000"
 preserveAspectRatio="xMidYMid meet">

<g transform="translate(0.000000,1024.000000) scale(0.100000,-0.100000)"
fill="#000000" stroke="none">
<path d="M4397 7553 c18 -2 50 -2 70 0 21 2 7 4 -32 4 -38 0 -55 -2 -38 -4z"/>
<path d="M4320 7540 c-18 -12 -2 -12 25 0 13 6 15 9 5 9 -8 0 -22 -4 -30 -9z"/>
<path d="M4555 7526 c69 -32 106 -66 134 -120 44 -89 44 -191 1 -276 -24 -47
-36 -55 -44 -33 -4 10 -4 14 0 11 9 -10 38 30 52 71 25 73 6 215 -27 204 -13
-4 -13 -3 -2 5 12 8 10 15 -7 38 -50 70 -101 98 -198 109 -53 6 -106 -1 -161
-22 -11 -5 -14 -3 -9 6 6 9 -1 8 -21 -3 -66 -33 -135 -144 -132 -209 l2 -32 4
30 c6 46 51 137 64 129 8 -5 6 -10 -5 -16 -9 -5 -16 -20 -16 -32 0 -13 -7 -26
-15 -30 -20 -7 -20 -128 0 -186 8 -24 13 -45 11 -47 -5 -5 -34 74 -39 107 -4
21 -4 21 -6 -6 -2 -48 55 -151 102 -185 22 -16 51 -32 64 -35 l23 -6 0 -224 0
-223 -532 -3 -533 -3 -55 -26 c-66 -31 -118 -74 -144 -121 -22 -38 -13 -30 33
29 21 28 54 53 99 75 l67 33 537 3 538 3 0 231 c0 127 2 229 5 226 10 -9 8
-449 -2 -459 -5 -5 -229 -10 -530 -12 -445 -2 -523 -4 -538 -17 -11 -9 -16
-10 -11 -2 10 18 -4 15 -42 -8 -18 -11 -38 -20 -46 -20 -17 0 -89 -77 -110
-118 -9 -18 -21 -30 -26 -27 -26 16 -30 -96 -29 -860 1 -434 4 -800 7 -813 4
-13 6 342 4 787 -1 446 1 825 5 841 4 17 8 -345 8 -802 l0 -833 27 -50 c35
-67 104 -129 167 -152 28 -10 51 -21 51 -25 0 -13 -79 20 -126 53 -26 18 -63
57 -85 92 -21 33 -39 56 -39 51 0 -21 59 -102 100 -137 78 -66 146 -81 354
-78 l38 1 -4 101 c-2 56 -2 96 0 90 2 -7 16 14 32 46 16 36 46 75 74 100 88
77 22 73 1120 73 540 0 986 4 993 8 6 4 -435 6 -980 4 -1105 -3 -1043 1 -1136
-72 -30 -24 -58 -58 -75 -91 -14 -29 -26 -48 -26 -42 0 48 91 154 158 184 26
11 67 23 92 25 25 3 477 6 1005 7 940 2 961 2 992 22 66 41 64 18 61 765 l-3
675 -25 49 c-33 67 -90 121 -158 148 -56 22 -64 22 -581 25 -289 2 -527 6
-530 9 -3 2 235 3 529 2 507 -3 538 -4 584 -23 68 -28 138 -94 167 -157 l24
-53 3 -665 c2 -366 0 -680 -3 -698 -3 -18 -21 -48 -41 -67 -19 -19 -31 -35
-26 -35 11 0 57 49 71 77 8 15 11 216 11 691 0 642 -1 671 -20 727 -28 82 -77
138 -158 177 l-67 33 -532 3 -533 3 0 223 0 224 23 6 c39 9 116 85 144 139 21
42 25 65 25 124 -1 86 -22 141 -76 201 -34 37 -110 82 -138 82 -7 0 10 -11 37
-24z m-293 -44 c-18 -16 -29 -32 -25 -35 3 -4 -1 -7 -10 -7 -26 0 -20 16 16
44 44 35 58 33 19 -2z m-37 -371 c-18 -7 -18 -9 10 -35 16 -15 45 -34 64 -42
41 -17 36 -29 -5 -14 -29 11 -104 77 -104 92 0 4 12 8 28 7 23 0 24 -2 7 -8z
m400 -57 c-16 -14 -45 -32 -62 -40 l-33 -14 0 -224 0 -223 -25 5 c-17 3 -24
10 -22 23 5 29 17 35 17 9 0 -13 3 -21 6 -18 3 4 6 103 6 221 l1 215 42 16
c23 9 51 26 60 36 10 11 23 20 29 20 6 -1 -2 -12 -19 -26z m-642 -555 c-16
-16 -60 -18 -60 -3 0 9 5 10 19 3 12 -7 18 -6 18 1 0 6 5 8 10 5 6 -3 10 -1
10 6 0 7 3 9 7 6 4 -4 2 -12 -4 -18z m-197 -9 c9 0 12 5 9 10 -4 6 6 10 21 10
27 0 27 -1 8 -15 -27 -21 -64 -19 -63 3 0 10 3 12 6 5 2 -7 11 -13 19 -13z
m269 13 c-11 -3 -24 -9 -29 -14 -14 -13 -26 -11 -26 4 0 7 15 13 38 13 20 1
28 0 17 -3z m1080 -2 c3 -5 2 -12 -3 -15 -5 -3 -9 1 -9 9 0 17 3 19 12 6z
m-1121 -47 c3 -8 2 -12 -4 -9 -6 3 -10 10 -10 16 0 14 7 11 14 -7z m506 -4 c0
-5 -2 -10 -4 -10 -3 0 -8 5 -11 10 -3 6 -1 10 4 10 6 0 11 -4 11 -10z m-723
-7 c-4 -3 -1 -13 6 -22 11 -14 10 -14 -5 -2 -16 12 -16 31 -1 31 4 0 3 -3 0
-7z m137 -19 c3 -8 2 -12 -4 -9 -6 3 -10 10 -10 16 0 14 7 11 14 -7z m40 0 c3
-8 2 -12 -4 -9 -6 3 -10 10 -10 16 0 14 7 11 14 -7z m-127 0 c-3 -3 -12 -4
-19 -1 -8 3 -5 6 6 6 11 1 17 -2 13 -5z m221 -29 c2 -1 -4 -5 -13 -9 -9 -3
-13 -2 -10 4 3 6 0 10 -8 10 -8 0 -21 7 -28 17 -12 14 -10 14 21 -2 19 -10 36
-19 38 -20z m592 25 c0 -5 -5 -10 -11 -10 -5 0 -7 5 -4 10 3 6 8 10 11 10 2 0
4 -4 4 -10z m-470 -10 c0 -5 -5 -10 -11 -10 -5 0 -7 5 -4 10 3 6 8 10 11 10 2
0 4 -4 4 -10z m-245 -28 c-3 -3 -11 0 -18 7 -9 10 -8 11 6 5 10 -3 15 -9 12
-12z m550 8 c3 -6 -1 -7 -9 -4 -18 7 -21 14 -7 14 6 0 13 -4 16 -10z m-721
-15 c-4 -8 -8 -15 -10 -15 -2 0 -4 7 -4 15 0 8 4 15 10 15 5 0 7 -7 4 -15z
m446 11 c0 -7 -40 -14 -44 -7 -3 4 6 8 20 9 13 1 24 0 24 -2z m-591 -27 c-16
-10 -23 -4 -14 10 3 6 11 8 17 5 6 -4 5 -9 -3 -15z m429 9 c10 -1 9 -5 -3 -17
-14 -14 -17 -14 -26 -1 -9 12 -10 12 -5 -3 5 -15 2 -17 -15 -12 -11 4 -26 2
-33 -4 -11 -9 -15 -6 -18 14 -7 32 -4 34 45 29 23 -3 48 -5 55 -6z m318 -14
c2 -12 -1 -13 -12 -3 -7 6 -11 16 -8 21 7 11 17 3 20 -18z m114 11 c10 -12 10
-18 0 -30 -7 -8 -18 -15 -24 -14 -7 0 -6 2 2 6 14 5 17 43 3 43 -5 0 -11 -7
-13 -17 -3 -14 -5 -14 -18 2 -8 11 -10 16 -3 12 6 -4 14 -3 18 3 9 14 20 12
35 -5z m-947 -10 c-3 -9 -8 -14 -10 -11 -3 3 -2 9 2 15 9 16 15 13 8 -4z m397
-25 c-11 -20 11 -39 35 -29 14 5 25 1 36 -13 15 -19 17 -19 32 -3 10 9 14 21
11 27 -4 6 -10 5 -15 -3 -6 -10 -11 -11 -20 -2 -8 8 -5 13 11 18 15 5 26 2 31
-6 6 -10 9 -7 10 11 0 23 1 23 8 5 6 -13 4 -23 -5 -28 -8 -4 -14 -19 -14 -32
0 -18 -4 -23 -15 -19 -8 4 -15 2 -15 -4 0 -5 -10 -12 -22 -15 -18 -5 -19 -8
-8 -22 13 -16 35 -6 35 16 0 5 4 8 10 7 5 -2 8 -9 7 -17 -2 -9 2 -12 12 -8 10
4 20 -1 26 -13 11 -20 30 -18 60 5 13 10 21 11 47 6 4 0 -2 -8 -13 -16 -10 -8
-13 -15 -7 -15 7 0 18 9 25 20 7 11 15 20 18 20 3 0 6 -9 6 -20 0 -12 -7 -20
-18 -20 -21 0 -32 -16 -18 -25 6 -4 18 -1 28 7 9 7 3 -5 -13 -27 l-29 -40 27
25 c25 21 27 22 21 5 -14 -40 -61 -61 -61 -27 0 56 -2 59 -33 56 -19 -2 -29 1
-27 8 1 7 -8 14 -20 16 -21 3 -23 -1 -23 -37 0 -22 4 -42 9 -45 5 -4 8 8 5 26
-2 22 -1 27 4 15 9 -22 22 -24 33 -5 7 11 10 11 21 0 11 -11 10 -13 -2 -10
-10 2 -14 -3 -12 -17 l4 -20 -16 20 c-15 20 -15 20 -11 -2 3 -17 -1 -21 -20
-18 -14 1 -22 -2 -19 -6 3 -5 0 -9 -5 -9 -6 0 -11 -7 -11 -15 0 -8 -4 -15 -10
-15 -5 0 -10 -6 -10 -12 1 -7 12 1 25 17 25 30 25 30 31 7 5 -16 12 -21 23
-17 9 3 4 -5 -11 -18 -19 -17 -27 -32 -26 -55 1 -18 6 -32 11 -32 6 0 7 -3 4
-6 -4 -4 -14 -1 -22 6 -14 12 -14 10 -5 -16 9 -27 7 -26 -28 14 -37 40 -52 45
-52 15 0 -7 5 -13 11 -13 14 0 78 -55 99 -84 8 -12 -9 0 -38 26 -86 77 -190
98 -292 59 -58 -22 -67 -18 -12 7 38 16 194 33 185 20 -2 -5 6 -8 18 -8 18 0
20 3 11 12 -20 20 -14 28 18 22 19 -4 30 -2 30 5 0 6 -5 11 -11 11 -8 0 -7 6
2 18 11 14 10 13 -9 -2 -12 -11 -22 -14 -22 -8 0 7 -5 12 -11 12 -5 0 -8 -3
-6 -7 3 -5 -10 -8 -28 -8 -18 0 -31 4 -28 8 3 5 11 6 19 3 8 -3 14 -1 14 4 0
6 -6 10 -12 11 -10 0 -10 2 0 6 7 3 12 23 12 49 0 42 13 59 23 32 3 -7 5 4 4
25 0 25 -4 34 -10 28 -7 -7 -15 -5 -24 7 -13 15 -13 15 -4 -5 6 -12 14 -23 18
-25 5 -3 2 -3 -4 -2 -9 2 -13 -9 -13 -32 l0 -35 -29 17 c-20 12 -28 25 -28 43
0 14 2 20 4 13 3 -6 10 -9 16 -5 8 4 8 1 -1 -9 -10 -13 -9 -18 5 -29 15 -12
16 -12 10 4 -3 9 -2 17 3 17 6 0 10 12 9 28 0 15 -3 21 -6 14 -2 -6 -9 -9 -15
-6 -14 9 71 64 88 57 8 -3 14 1 14 9 0 14 -41 20 -50 7 -3 -4 -10 3 -17 17 -6
13 -7 22 -2 18 9 -5 14 31 10 74 -2 20 0 22 12 10 9 -8 12 -19 7 -28z m244 -1
c-13 -21 -31 -8 -26 18 5 24 6 25 18 8 7 -10 11 -22 8 -26z m-444 27 c0 -2 -8
-10 -17 -17 -16 -13 -17 -12 -4 4 13 16 21 21 21 13z m43 -35 c-13 -9 -17 -65
-4 -56 6 3 9 10 6 15 -9 15 27 79 41 73 8 -3 14 -12 14 -20 0 -13 -3 -13 -15
-3 -8 7 -16 9 -16 4 -7 -51 -6 -64 2 -69 5 -4 9 1 9 9 0 9 5 16 10 16 6 0 10
-5 10 -11 0 -5 4 -7 10 -4 5 3 7 0 4 -8 -3 -8 -1 -18 5 -22 14 -8 14 -25 0
-25 -5 0 -8 4 -5 9 3 5 -1 14 -9 21 -12 10 -13 7 -9 -22 8 -51 11 -137 5 -133
-3 1 -7 -8 -7 -21 -1 -13 2 -24 7 -24 5 0 9 -7 9 -16 0 -10 5 -14 16 -10 9 3
12 2 8 -5 -3 -6 -15 -9 -25 -6 -11 3 -19 1 -19 -3 0 -5 -16 -7 -36 -6 -34 3
-35 2 -30 -23 3 -14 3 -20 0 -13 -5 10 -9 9 -20 -5 -13 -16 -13 -15 -4 10 5
15 6 27 2 27 -4 0 -8 9 -9 20 -1 11 3 20 8 20 6 0 8 -4 4 -9 -3 -5 -1 -12 4
-15 5 -3 11 3 14 14 3 11 2 18 -2 16 -4 -3 -13 -1 -21 5 -12 7 -12 9 3 9 10 0
16 4 12 10 -9 15 -29 2 -49 -30 -11 -20 -13 -28 -4 -25 8 3 14 -4 14 -20 1
-14 -2 -25 -8 -25 -5 0 -7 4 -3 9 5 8 -26 32 -45 35 -3 1 -5 6 -5 13 0 17 -15
29 -16 12 -1 -8 -1 -17 0 -21 0 -5 -6 -8 -15 -8 -14 0 -15 2 -3 17 12 14 12
16 -1 11 -10 -3 -14 -15 -12 -36 3 -33 -9 -41 -37 -23 -9 6 -10 11 -2 15 6 4
11 2 11 -5 0 -7 3 -10 6 -6 10 9 11 87 2 87 -4 0 -8 -9 -8 -21 0 -14 -5 -19
-17 -17 -10 2 -17 11 -17 21 1 9 -2 17 -7 17 -5 0 -9 -5 -9 -11 0 -5 -4 -7
-10 -4 -9 5 -15 -15 -11 -37 0 -5 -3 -8 -9 -8 -5 0 -8 17 -6 37 3 35 28 58 49
46 4 -2 7 1 7 7 0 6 4 9 8 6 5 -3 9 1 9 9 0 17 -18 15 -34 -5 -11 -13 -12 -12
-13 9 0 18 4 22 20 18 11 -3 20 -1 20 4 0 4 6 6 14 3 9 -3 12 -13 8 -27 -5
-20 -4 -21 13 -7 15 12 17 12 10 1 -6 -11 -4 -13 9 -8 10 4 22 7 27 7 5 0 9 5
9 11 0 5 -6 7 -12 3 -10 -6 -10 -5 -1 8 7 8 10 18 6 21 -3 4 -1 7 6 7 7 0 11
-6 8 -14 -3 -8 -3 -17 1 -21 18 -17 -4 -56 -30 -54 -10 0 -10 2 0 6 6 2 10 9
6 14 -9 15 -24 0 -24 -23 0 -15 5 -19 20 -15 20 5 45 -15 33 -26 -3 -4 -2 -7
4 -7 15 0 25 30 10 31 -7 0 -2 4 11 10 13 5 20 13 17 19 -4 6 -12 7 -18 3 -7
-4 -6 0 2 10 7 9 9 17 3 17 -5 0 -12 6 -15 14 -4 9 0 12 12 9 13 -3 20 2 24
19 5 20 4 21 -7 6 -7 -10 -17 -13 -25 -9 -10 6 -9 10 3 14 9 4 16 12 16 18 0
7 -4 8 -12 2 -12 -8 -23 -9 -45 -4 -7 2 18 15 42 21 6 2 16 10 23 19 11 14 12
13 3 -5 -10 -21 -6 -34 11 -34 5 0 7 4 3 9 -3 5 -1 12 4 15 5 3 11 -1 15 -9 3
-8 1 -17 -4 -20 -5 -3 -15 -18 -23 -34 -13 -26 -13 -30 3 -44 10 -8 21 -13 24
-10 3 3 13 0 21 -7 12 -10 18 -11 28 -1 9 10 8 11 -7 5 -15 -6 -17 -4 -11 7 4
8 5 11 0 7 -4 -4 -14 0 -22 10 -8 9 -12 11 -8 5 3 -7 1 -13 -5 -13 -7 0 -9 7
-6 16 3 9 6 22 6 30 0 8 4 14 10 14 5 0 7 -8 4 -17 -4 -11 -3 -14 3 -7 4 6 15
14 23 17 12 4 11 6 -2 6 -12 1 -18 9 -18 25 0 24 27 62 37 52 3 -3 -2 -12 -11
-21 -9 -9 -13 -22 -9 -28 4 -6 9 -2 14 11 5 12 12 22 17 22 5 0 9 7 9 15 0 8
-4 12 -9 9 -4 -3 -8 1 -8 8 0 8 -3 9 -8 3 -4 -5 -14 -11 -22 -12 -12 -2 -15 8
-13 45 2 65 2 64 13 57 6 -3 11 0 11 7 1 7 3 5 6 -6 3 -10 1 -21 -4 -25z m443
2 c-3 -4 -6 -1 -6 6 0 7 -4 9 -10 6 -11 -7 -14 8 -3 19 4 3 11 -1 16 -9 5 -9
6 -19 3 -22z m44 16 c0 -5 -5 -9 -12 -9 -6 0 -3 -6 7 -14 11 -8 26 -11 34 -8
9 3 12 1 7 -6 -3 -6 -15 -10 -26 -9 -10 1 -17 4 -14 8 2 4 -1 9 -8 11 -6 2
-12 14 -13 25 -1 14 3 19 12 16 7 -3 13 -9 13 -14z m160 6 c7 -8 11 -15 9 -16
-37 -7 -40 -7 -29 6 8 10 7 14 -2 18 -8 3 -8 6 -2 6 6 1 17 -6 24 -14z m160
-18 c0 -2 -7 -4 -15 -4 -8 0 -12 5 -8 10 3 5 -4 6 -18 2 -23 -7 -23 -6 -5 8
16 12 22 12 33 1 7 -7 13 -14 13 -17z m65 24 c3 -5 2 -12 -3 -15 -5 -3 -9 1
-9 9 0 17 3 19 12 6z m255 -12 c0 -4 -7 -6 -15 -3 -8 4 -15 10 -15 15 0 4 7 6
15 3 8 -4 15 -10 15 -15z m-550 -4 c0 -1 -6 -7 -13 -13 -10 -8 -13 -6 -14 8
-1 13 3 17 13 13 8 -3 14 -6 14 -8z m580 11 c0 -3 -4 -8 -10 -11 -5 -3 -10 -1
-10 4 0 6 5 11 10 11 6 0 10 -2 10 -4z m-625 -16 c3 -6 -1 -7 -9 -4 -18 7 -21
14 -7 14 6 0 13 -4 16 -10z m572 -22 c-3 -8 -6 -5 -6 6 -1 11 2 17 5 13 3 -3
4 -12 1 -19z m-1163 3 c3 -5 -1 -11 -9 -15 -8 -3 -17 0 -21 6 -4 7 -3 8 4 4 7
-4 12 -2 12 3 0 13 7 14 14 2z m133 -13 c-3 -8 -6 -5 -6 6 -1 11 2 17 5 13 3
-3 4 -12 1 -19z m396 -32 c18 2 27 -1 24 -9 -2 -7 -13 -13 -25 -13 -12 -1 -27
-6 -34 -11 -17 -14 -47 -13 -45 1 1 6 -6 10 -17 8 -10 -2 -16 1 -12 6 3 5 -1
9 -8 9 -9 0 -13 -9 -11 -24 2 -23 -18 -32 -30 -13 -3 6 -2 10 3 10 5 0 12 9
15 20 3 13 14 20 30 20 21 0 24 4 21 23 l-5 22 12 -22 c12 -23 39 -32 39 -12
0 5 -4 7 -10 4 -11 -7 -14 18 -3 29 4 4 12 -6 18 -22 8 -24 15 -29 38 -26z
m306 40 c9 -10 8 -15 -3 -19 -11 -4 -13 -1 -9 10 5 12 3 14 -8 7 -21 -13 -38
-14 -46 -2 -4 7 2 9 15 6 12 -4 22 -2 22 3 0 13 16 11 29 -5z m380 -2 c6 4 11
3 11 -2 0 -5 -9 -12 -20 -15 -11 -3 -18 -1 -14 4 3 5 0 9 -6 9 -6 0 -8 5 -4
11 5 8 9 8 14 -1 4 -7 13 -9 19 -6z m-1354 -23 c-3 -2 -11 1 -18 7 -8 7 -18 8
-22 4 -5 -4 -5 -1 -1 5 5 10 11 10 26 1 11 -7 17 -14 15 -17z m540 6 c6 -5 4
-7 -5 -6 -8 1 -22 1 -30 0 -13 -1 -13 -2 0 -11 13 -9 13 -10 0 -10 -13 0 -13
-1 0 -10 13 -8 12 -10 -2 -10 -12 0 -17 6 -15 18 3 21 30 53 37 44 3 -4 10
-10 15 -15z m260 -7 c-1 -11 -5 -23 -9 -27 -4 -5 -7 -3 -6 2 1 6 2 19 1 30 -2
18 -3 18 -16 -5 -16 -28 -21 -19 -5 10 13 24 37 16 35 -10z m104 6 c5 -7 5
-21 -1 -36 l-10 -25 -12 27 c-7 15 -20 34 -31 41 -16 13 -15 14 13 9 17 -2 35
-9 41 -16z m265 -26 c-5 -5 -9 4 -10 23 -1 30 -1 30 9 9 6 -14 7 -26 1 -32z
m-84 36 c0 -3 -4 -8 -10 -11 -5 -3 -10 -1 -10 4 0 6 5 11 10 11 6 0 10 -2 10
-4z m59 -29 c0 -9 -2 -9 -6 1 -2 6 -9 12 -14 12 -6 0 -7 -5 -4 -11 4 -6 -2
-19 -14 -30 -12 -11 -21 -15 -21 -9 0 5 -8 10 -17 11 -12 0 -13 2 -5 6 10 4 9
9 -5 20 -17 13 -16 13 5 3 12 -6 22 -16 22 -22 0 -7 5 -7 14 1 8 7 13 21 11
32 -3 16 -1 18 16 9 10 -6 19 -16 18 -23z m407 13 c0 -23 -11 -27 -19 -6 -3 8
-1 17 6 20 7 2 12 5 12 5 1 1 1 -8 1 -19z m-807 -23 c0 -21 -1 -21 -9 -2 -12
28 -12 37 0 30 6 -3 10 -16 9 -28z m-772 6 c3 -7 -4 -11 -16 -10 -12 1 -21 7
-21 15 0 16 32 12 37 -5z m56 -3 c-4 -16 -9 -18 -24 -9 -23 12 -25 21 -4 13 8
-4 15 -1 15 5 0 6 4 11 9 11 5 0 7 -9 4 -20z m812 10 c4 -6 11 -7 17 -4 7 5 8
2 4 -5 -5 -7 -11 -10 -14 -7 -3 3 -15 -2 -26 -11 -12 -10 -16 -11 -9 -4 6 7 9
20 6 27 -6 16 13 19 22 4z m113 -6 c6 3 18 3 27 0 15 -6 14 -8 -1 -25 -9 -11
-22 -19 -28 -19 -6 0 -3 5 7 11 9 5 17 15 17 21 0 9 -3 9 -12 0 -7 -7 -16 -8
-23 -2 -8 7 -12 2 -12 -19 0 -15 -7 -39 -16 -52 l-17 -23 0 26 c0 15 4 29 9
32 4 3 11 20 15 38 5 24 9 29 15 19 5 -7 13 -11 19 -7z m375 -8 c3 -7 -4 -13
-16 -14 -17 -1 -19 1 -7 8 10 7 11 10 3 10 -7 0 -13 4 -13 10 0 13 27 2 33
-14z m67 10 c0 -23 -16 -27 -17 -5 -1 10 2 19 8 19 5 0 9 -6 9 -14z m-1328
-16 c-12 -11 -24 -20 -27 -20 -3 0 0 9 7 20 7 11 19 20 27 20 11 0 9 -6 -7
-20z m1293 10 c3 -5 1 -10 -4 -10 -6 0 -11 5 -11 10 0 6 2 10 4 10 3 0 8 -4
11 -10z m-1210 -10 c-3 -5 -10 -10 -16 -10 -5 0 -9 5 -9 10 0 6 7 10 16 10 8
0 12 -4 9 -10z m1425 -15 c0 -14 -4 -25 -9 -25 -4 0 -6 11 -3 25 2 14 6 25 8
25 2 0 4 -11 4 -25z m-350 11 c0 -2 -7 -7 -16 -10 -8 -3 -12 -2 -9 4 6 10 25
14 25 6z m-1218 -20 c7 4 6 -1 -4 -11 -18 -19 -38 -13 -38 12 0 12 3 13 15 3
8 -6 20 -8 27 -4z m435 -2 c-3 -3 -12 -4 -19 -1 -8 3 -5 6 6 6 11 1 17 -2 13
-5z m245 -16 c-7 -7 -12 -8 -12 -2 0 14 12 26 19 19 2 -3 -1 -11 -7 -17z m38
7 c-7 -9 -15 -13 -17 -11 -7 7 7 26 19 26 6 0 6 -6 -2 -15z m53 -2 c-4 -10 -2
-14 5 -9 6 3 13 2 16 -3 3 -5 -1 -11 -9 -15 -8 -3 -15 0 -15 7 0 7 -7 4 -15
-6 -7 -11 -11 -25 -9 -32 3 -7 1 -16 -4 -19 -6 -3 -13 2 -16 11 -4 9 -1 20 5
24 7 4 9 14 6 22 -4 12 -2 14 10 10 10 -4 14 -2 10 4 -6 9 -1 14 20 22 1 1 -1
-6 -4 -16z m242 -4 c-4 -5 -12 -9 -18 -8 -9 0 -8 2 1 6 6 2 9 10 6 15 -4 7 -2
8 5 4 6 -4 9 -12 6 -17z m45 17 c0 -2 -7 -7 -16 -10 -8 -3 -12 -2 -9 4 6 10
25 14 25 6z m63 -43 c-8 -6 -12 -16 -8 -22 3 -6 2 -11 -3 -11 -18 0 -21 14 -6
31 10 11 12 19 5 24 -6 3 -11 10 -11 16 0 5 8 1 19 -8 16 -16 16 -20 4 -30z
m127 37 c0 -5 -2 -10 -4 -10 -3 0 -8 5 -11 10 -3 6 -1 10 4 10 6 0 11 -4 11
-10z m85 1 c3 -5 2 -12 -3 -15 -5 -3 -9 1 -9 9 0 17 3 19 12 6z m-1435 -11
c-8 -5 -19 -10 -25 -10 -5 0 -3 5 5 10 8 5 20 10 25 10 6 0 3 -5 -5 -10z m975
2 c-4 -4 -12 -7 -18 -7 -7 0 -11 -8 -11 -16 1 -11 -5 -15 -15 -12 -9 2 -17 12
-18 22 -1 13 7 17 33 18 20 1 32 -2 29 -5z m330 -10 c-3 -3 -11 0 -18 7 -9 10
-8 11 6 5 10 -3 15 -9 12 -12z m-1251 -11 c16 -18 16 -19 -1 -17 -10 0 -17 -5
-15 -11 3 -18 -8 -16 -30 3 -17 16 -17 18 0 30 23 18 26 17 46 -5z m63 -14
c-10 -20 -17 -23 -25 -15 -7 7 -12 17 -12 23 0 5 4 4 9 -4 7 -11 11 -9 21 9 6
12 14 20 16 17 2 -2 -2 -16 -9 -30z m963 26 c0 -1 -14 -10 -31 -18 -29 -16
-30 -16 -20 4 6 11 20 19 31 18 11 -1 20 -2 20 -4z m416 -15 c10 -12 14 -18 7
-15 -6 4 -14 3 -18 -3 -4 -7 -12 -7 -25 0 -20 11 -34 -9 -24 -35 4 -8 1 -15
-6 -15 -6 0 -8 5 -5 10 3 6 -3 10 -14 10 -13 0 -21 6 -21 18 0 13 2 14 9 3 5
-7 14 -10 20 -7 8 5 7 11 -2 20 -6 8 -15 12 -19 9 -5 -2 -8 1 -8 7 0 8 7 9 18
5 35 -14 53 -14 59 0 7 19 6 19 29 -7z m140 -5 c-4 -4 -12 -1 -19 7 -9 10 -9
11 1 6 7 -4 12 -2 13 6 0 11 2 11 6 0 3 -7 2 -16 -1 -19z m-464 -1 c3 -10 0
-19 -6 -19 -7 0 -13 9 -13 19 -1 10 2 18 6 18 5 0 11 -8 13 -18z m-382 -17
c14 -18 14 -19 -2 -7 -9 8 -22 11 -28 7 -5 -3 -10 -2 -10 4 0 7 24 23 25 17 1
0 7 -10 15 -21z m904 19 c12 -5 11 -10 -9 -28 -14 -13 -21 -27 -17 -32 4 -4
-1 -2 -10 5 -10 7 -18 16 -18 19 0 3 3 3 6 -1 9 -9 36 21 29 33 -7 11 -3 12
19 4z m-1554 -23 c0 -10 -7 -21 -15 -24 -12 -5 -12 -2 -3 18 13 30 18 31 18 6z
m777 3 c-3 -3 -12 -4 -19 -1 -8 3 -5 6 6 6 11 1 17 -2 13 -5z m160 -9 c4 -4 3
-5 -4 -1 -6 3 -14 2 -18 -4 -3 -5 -1 -10 6 -10 7 0 9 -3 6 -6 -4 -4 -13 -1
-21 5 -23 20 -28 -5 -4 -25 15 -14 22 -16 25 -6 3 6 9 10 14 6 5 -3 2 -13 -8
-22 -11 -12 -18 -13 -20 -5 -3 7 -11 9 -19 6 -11 -4 -15 0 -12 12 2 10 -2 20
-7 22 -6 2 -10 -9 -9 -24 0 -15 6 -29 12 -31 7 -2 12 -11 12 -20 -1 -14 -3
-14 -18 4 -10 11 -24 18 -32 16 -12 -4 -11 0 3 15 9 11 14 23 10 27 -10 9 44
55 62 52 8 -1 18 -6 22 -11z m191 -10 c-3 -3 -9 2 -12 12 -6 14 -5 15 5 6 7
-7 10 -15 7 -18z m-321 -4 c-1 -14 -5 -17 -13 -11 -6 6 -13 9 -15 7 -2 -1 2 4
10 11 19 16 20 15 18 -7z m-147 -6 c0 -12 -19 -12 -23 0 -4 9 -1 12 9 8 7 -3
14 -7 14 -8z m67 -7 c-3 -8 -6 -5 -6 6 -1 11 2 17 5 13 3 -3 4 -12 1 -19z
m373 12 c-8 -5 -19 -10 -25 -10 -5 0 -3 5 5 10 8 5 20 10 25 10 6 0 3 -5 -5
-10z m217 -12 c-3 -8 -6 -5 -6 6 -1 11 2 17 5 13 3 -3 4 -12 1 -19z m-267 -24
c-6 -6 -7 -14 -3 -17 10 -10 -10 -8 -27 3 -15 9 -13 11 13 14 6 1 11 10 9 21
-2 16 -1 17 7 5 6 -9 6 -19 1 -26z m-1175 5 c-4 -5 -13 -9 -21 -9 -12 0 -12 2
-2 14 14 15 32 11 23 -5z m749 6 c-4 -10 0 -15 12 -15 23 0 9 -13 -19 -17 -12
-2 -29 -10 -37 -19 -13 -13 -13 -14 4 -8 16 6 18 4 13 -10 -11 -28 0 -35 34
-23 23 9 29 17 26 33 -3 18 -1 19 20 10 12 -6 23 -18 23 -26 0 -13 -1 -13 -10
0 -8 13 -12 12 -25 -8 -9 -12 -21 -20 -26 -17 -5 4 -12 -1 -15 -9 -8 -20 -30
-21 -38 -1 -9 24 -51 12 -50 -13 1 -19 -1 -20 -20 -10 -11 7 -25 11 -30 10 -5
-2 -4 4 3 12 7 8 10 20 6 26 -10 17 7 11 22 -7 13 -16 14 -16 10 10 -4 24 3
32 26 28 4 0 7 4 7 10 0 5 5 7 10 4 6 -3 13 0 16 9 3 9 12 12 22 8 14 -5 15
-3 5 10 -12 14 -8 28 8 28 5 0 6 -7 3 -15z m498 -12 c-3 -16 -7 -22 -10 -15
-3 10 -8 9 -23 -4 -11 -9 -22 -14 -26 -11 -3 4 -1 7 5 7 6 0 9 9 7 19 -2 13 1
18 10 15 7 -3 16 -1 20 5 12 21 22 11 17 -16z m233 -2 c9 -19 11 -32 5 -36 -6
-3 -10 1 -10 10 0 9 -4 13 -10 10 -6 -4 -10 5 -10 19 0 34 6 33 25 -3z m157
-6 c-3 -5 1 -5 9 1 25 19 46 23 46 8 0 -7 -5 -10 -10 -7 -7 4 -8 -1 -4 -13 7
-18 7 -18 -8 0 -15 19 -15 19 -15 -1 0 -12 4 -23 9 -25 5 -1 2 -10 -7 -18 -14
-13 -15 -12 -9 3 4 11 0 20 -13 27 -12 6 -20 21 -20 36 0 21 2 23 14 12 8 -7
11 -17 8 -23z m-722 11 c0 -20 -26 -40 -35 -26 -4 6 -1 9 7 8 8 -2 12 4 10 15
-2 9 2 17 8 17 5 0 10 -6 10 -14z m519 -3 c3 -2 -1 -9 -7 -15 -17 -17 -15 -31
3 -24 22 8 18 -2 -6 -15 -15 -8 -19 -8 -15 0 4 6 2 11 -5 11 -7 0 -5 8 7 21
19 22 19 22 -3 10 -37 -19 -45 -13 -34 27 1 3 55 -10 60 -15z m101 8 c0 -11
-31 -24 -39 -16 -3 3 1 10 9 15 19 12 30 12 30 1z m-701 -32 c-12 -7 -49 6
-49 17 0 3 4 3 9 -1 5 -3 13 -1 16 5 5 8 11 7 21 -1 12 -10 12 -14 3 -20z
m-206 -1 c-13 -6 -23 -15 -23 -20 0 -4 -4 -8 -10 -8 -5 0 -10 4 -10 8 0 10 38
31 55 31 6 0 0 -5 -12 -11z m-247 -20 c1 -11 -3 -15 -13 -11 -11 4 -12 8 -2
13 8 6 6 10 -7 13 -19 6 -19 6 0 4 11 -1 20 -10 22 -19z m551 7 c0 -8 -4 -12
-9 -9 -5 3 -6 10 -3 15 9 13 12 11 12 -6z m-163 -10 c3 -8 1 -15 -4 -15 -6 0
-10 7 -10 15 0 8 2 15 4 15 2 0 6 -7 10 -15z m394 -5 c-7 -10 -9 -23 -5 -27 5
-4 12 -1 17 7 11 17 13 9 4 -14 -8 -21 -17 -20 -32 5 -11 18 -11 23 5 35 24
18 25 17 11 -6z m-313 1 c3 -5 1 -12 -5 -16 -5 -3 -10 1 -10 9 0 18 6 21 15 7z
m58 -22 c-9 -9 -12 -7 -10 9 1 14 5 18 11 12 7 -7 6 -14 -1 -21z m60 24 c-20
-7 -16 -43 5 -43 14 0 15 -2 2 -10 -24 -16 -30 -12 -30 18 0 31 7 42 24 41 6
0 5 -3 -1 -6z m563 -2 c-4 -5 -3 -11 1 -14 5 -2 2 -2 -4 -1 -7 2 -13 -4 -14
-14 0 -14 -2 -14 -6 -2 -3 8 -11 19 -17 23 -7 6 -4 7 6 3 10 -3 20 -1 23 4 4
6 8 10 11 10 3 0 3 -4 0 -9z m74 5 c0 -3 -4 -8 -10 -11 -5 -3 -10 -1 -10 4 0
6 5 11 10 11 6 0 10 -2 10 -4z m26 -11 c-3 -8 2 -18 11 -23 13 -8 13 -10 -4
-14 -13 -4 -20 0 -20 11 -2 21 5 41 13 41 3 0 4 -7 0 -15z m-591 -4 c-3 -6 1
-13 9 -18 11 -6 12 -13 6 -23 -9 -13 -10 -13 -10 0 0 13 -1 13 -10 0 -15 -23
-12 -33 8 -25 13 5 14 4 5 -6 -10 -9 -15 -10 -27 0 -15 13 -28 2 -32 -27 -5
-30 -14 -23 -14 11 0 28 3 35 15 31 12 -5 14 -2 8 12 -6 17 -5 17 10 5 15 -12
17 -11 18 5 1 11 1 25 0 32 -1 6 3 12 9 12 6 0 9 -4 5 -9z m-993 -14 c20 -10
23 -15 12 -25 -7 -7 -11 -19 -8 -27 4 -8 2 -15 -4 -15 -6 0 -13 6 -15 13 -4 9
-6 9 -6 0 -1 -18 18 -26 34 -13 8 7 15 7 19 1 4 -5 1 -13 -6 -17 -21 -13 -58
-13 -59 -1 -4 43 -1 97 5 97 2 0 15 -6 28 -13z m953 3 c3 -5 -1 -10 -10 -10
-9 0 -13 5 -10 10 3 6 8 10 10 10 2 0 7 -4 10 -10z m120 0 c3 -5 2 -10 -4 -10
-5 0 -13 5 -16 10 -3 6 -2 10 4 10 5 0 13 -4 16 -10z m94 -44 c-9 -8 -10 -7
-5 7 3 10 7 26 7 35 1 9 4 6 6 -7 3 -13 -1 -28 -8 -35z m185 48 c9 -3 14 -10
11 -15 -7 -10 -35 0 -35 12 0 11 3 11 24 3z m86 -4 c13 -9 13 -10 0 -10 -13 0
-13 -1 0 -10 12 -8 11 -10 -5 -10 -14 0 -21 6 -21 20 0 22 4 24 26 10z m205 0
c3 -5 2 -10 -4 -10 -5 0 -13 5 -16 10 -3 6 -2 10 4 10 5 0 13 -4 16 -10z
m-1836 -29 c-1 -17 -3 -20 -6 -8 -2 9 -9 17 -14 17 -5 0 -9 4 -9 8 0 5 7 9 15
9 10 0 15 -9 14 -26z m61 10 c0 -5 -10 -12 -22 -15 l-23 -7 23 -9 c28 -12 29
-22 0 -11 -28 10 -33 50 -5 43 15 -4 18 -2 12 8 -5 9 -4 11 3 6 7 -4 12 -11
12 -15z m1011 -4 c-10 -9 -11 -8 -5 6 3 10 9 15 12 12 3 -3 0 -11 -7 -18z
m329 19 c0 -3 -4 -8 -10 -11 -5 -3 -10 -1 -10 4 0 6 5 11 10 11 6 0 10 -2 10
-4z m-1504 -21 c-1 -8 -5 -17 -8 -21 -5 -4 -4 16 1 34 3 9 9 -1 7 -13z m1104
10 c0 -7 -39 -12 -49 -5 -7 4 1 7 18 8 17 0 31 -1 31 -3z m-880 -9 c0 -11 -19
-15 -25 -6 -3 5 1 10 9 10 9 0 16 -2 16 -4z m733 -16 c3 -12 1 -18 -5 -14 -6
4 -8 -2 -4 -17 3 -13 3 -18 0 -11 -9 20 -26 14 -19 -8 4 -14 2 -20 -8 -20 -20
0 -17 30 5 52 10 10 16 23 13 28 -4 6 -2 10 3 10 5 0 12 -9 15 -20z m191 6
c-3 -8 -1 -17 5 -21 13 -7 15 -42 2 -49 -4 -3 -8 5 -7 17 1 12 -4 32 -12 45
-13 19 -12 22 2 22 9 0 13 -6 10 -14z m355 -3 c-10 -12 -11 -17 -2 -20 7 -2 9
-11 6 -19 -8 -22 -19 -17 -18 9 0 22 12 47 22 47 3 0 -1 -7 -8 -17z m410 -7
c-7 -14 -17 -22 -24 -20 -6 3 -12 -2 -12 -11 0 -8 3 -15 7 -15 3 0 15 -7 26
-15 16 -13 12 -13 -21 1 -22 9 -74 20 -115 25 l-75 7 82 -2 c72 -2 82 0 86 16
4 14 26 30 54 37 2 1 -2 -10 -8 -23z m-1531 -15 c1 -16 -1 -32 -5 -34 -5 -3
-8 10 -9 29 -1 42 11 45 14 5z m-318 -2 c0 -6 -4 -7 -10 -4 -5 3 -10 11 -10
16 0 6 5 7 10 4 6 -3 10 -11 10 -16z m1042 4 c-5 -10 -7 -25 -4 -33 3 -11 2
-12 -8 -4 -9 9 -9 17 -1 33 7 12 14 21 17 21 2 0 1 -8 -4 -17z m78 2 c0 -8 -2
-15 -4 -15 -2 0 -6 7 -10 15 -3 8 -1 15 4 15 6 0 10 -7 10 -15z m-966 -6 c10
9 16 8 26 -4 7 -8 9 -15 5 -15 -5 0 -1 -8 8 -17 15 -18 17 -22 17 -43 0 -5 5
-10 11 -10 8 0 8 4 1 13 -7 8 -7 18 -1 27 8 13 10 13 18 0 5 -8 7 -18 4 -24
-3 -5 -1 -6 5 -2 7 4 12 1 12 -6 0 -9 3 -9 10 2 6 9 10 10 10 3 0 -6 -4 -14
-10 -18 -5 -3 -7 -12 -3 -20 7 -19 -2 -19 -31 1 l-24 15 3 -40 c2 -23 -1 -41
-6 -41 -5 0 -9 5 -9 11 0 7 -8 18 -17 25 -14 11 -14 13 -3 9 12 -4 16 2 16 27
0 18 -5 36 -11 40 -6 5 -5 8 3 8 23 0 -10 26 -43 34 l-30 7 30 -21 c22 -14 25
-20 13 -20 -10 0 -18 5 -18 12 0 6 -3 8 -7 5 -3 -4 -12 -2 -19 4 -9 8 -18 5
-33 -10 -25 -25 -28 -16 -4 11 9 10 23 18 31 18 9 0 12 6 8 16 -5 14 -4 15 9
4 11 -9 18 -10 29 -1z m651 1 c3 -6 -1 -7 -9 -4 -18 7 -21 14 -7 14 6 0 13 -4
16 -10z m505 -2 c0 -11 -12 -10 -30 2 -12 7 -10 9 8 7 12 0 22 -5 22 -9z m562
0 c-14 -14 -16 -32 -3 -23 5 3 12 1 15 -4 4 -5 -2 -8 -11 -6 -10 2 -22 4 -27
4 -9 1 23 41 33 41 3 0 0 -5 -7 -12z m-1818 -7 c3 -5 -6 -8 -20 -8 -19 0 -22
2 -13 8 18 11 26 11 33 0z m283 -13 c-3 -8 -6 -5 -6 6 -1 11 2 17 5 13 3 -3 4
-12 1 -19z m1064 13 c6 10 9 5 9 -15 0 -28 -1 -29 -15 -10 -8 10 -14 24 -14
29 0 6 3 4 6 -4 5 -11 7 -11 14 0z m-1421 -16 c7 -9 8 -15 2 -15 -5 0 -12 7
-16 15 -3 8 -4 15 -2 15 2 0 9 -7 16 -15z m381 -18 c-10 -9 -11 -8 -5 6 3 10
9 15 12 12 3 -3 0 -11 -7 -18z m577 6 c-7 -10 -8 -14 -1 -10 12 8 73 -23 73
-37 0 -5 -7 -3 -15 4 -15 13 -39 5 -30 -11 4 -5 1 -9 -4 -9 -6 0 -12 -8 -12
-17 -1 -17 -2 -17 -6 0 -2 9 -9 15 -14 11 -5 -3 -7 -9 -4 -14 3 -4 -2 -10 -10
-13 -11 -5 -12 -1 -6 16 5 12 15 22 22 22 17 0 39 26 32 38 -2 4 -9 4 -15 1
-6 -4 -17 1 -25 11 -11 16 -13 16 -13 3 0 -9 -7 -18 -15 -22 -8 -3 -15 -10
-15 -17 0 -6 7 -9 15 -5 19 7 19 3 -2 -20 -22 -23 -49 -29 -59 -13 -5 8 -3 9
6 4 10 -6 12 -4 6 10 -5 15 -4 16 8 6 10 -9 16 -9 21 -1 4 7 -3 14 -16 18
l-24 6 23 5 c13 3 22 9 20 13 -4 11 31 34 54 35 17 2 18 0 6 -14z m192 13 c0
-3 -4 -8 -10 -11 -5 -3 -10 -1 -10 4 0 6 5 11 10 11 6 0 10 -2 10 -4z m123 -2
c8 -8 -3 -34 -15 -34 -6 0 -6 6 1 14 10 12 8 13 -8 9 -12 -3 -19 -9 -16 -13 3
-5 -1 -11 -7 -13 -7 -3 -3 -6 10 -6 12 -1 22 -6 22 -12 0 -5 -5 -7 -11 -4 -6
4 -13 -3 -16 -16 l-6 -23 -9 23 c-9 27 -24 21 -30 -13 -5 -23 7 -37 34 -40 19
-3 14 -12 -7 -12 -13 0 -21 4 -19 8 3 4 1 8 -5 8 -5 0 -11 -3 -14 -7 -2 -5 -3
-3 -1 3 1 6 -3 17 -9 23 -8 8 -8 11 1 11 7 0 12 11 12 24 0 16 7 26 21 29 14
4 20 11 16 20 -7 19 1 27 28 27 12 0 24 -3 28 -6z m362 -4 c-28 -12 -37 -12
-30 0 3 6 16 10 28 9 21 0 21 -1 2 -9z m410 0 c3 -5 2 -10 -4 -10 -5 0 -13 5
-16 10 -3 6 -2 10 4 10 5 0 13 -4 16 -10z m-1735 -16 c0 -10 -11 -11 -38 -5
-2 1 -1 5 2 9 8 13 36 10 36 -4z m320 0 c74 -22 152 -100 174 -174 20 -69 20
-102 -4 -170 -23 -67 -17 -79 10 -19 25 57 26 143 1 209 -11 27 -15 48 -11 45
17 -10 40 -101 40 -155 0 -53 -36 -153 -51 -140 -8 7 -39 -19 -39 -32 0 -6 8
-4 18 3 15 13 16 12 4 -3 -8 -10 -17 -16 -21 -15 -3 1 -31 -14 -61 -33 -48
-31 -64 -35 -132 -39 -64 -2 -85 1 -122 19 -163 79 -205 287 -86 423 74 84
173 113 280 81z m391 -1 c13 -16 12 -17 -3 -4 -10 7 -18 15 -18 17 0 8 8 3 21
-13z m379 7 c0 -5 -2 -10 -4 -10 -3 0 -8 5 -11 10 -3 6 -1 10 4 10 6 0 11 -4
11 -10z m406 -5 c66 -19 127 -73 160 -140 88 -181 -39 -386 -241 -387 -122 -1
-228 76 -261 190 -42 145 43 300 185 338 62 17 98 17 157 -1z m-1743 -15 c-3
-11 -9 -20 -14 -20 -20 0 -7 -19 18 -27 21 -7 32 -5 50 10 12 11 36 22 53 24
24 2 30 -1 30 -16 0 -11 -4 -23 -10 -26 -5 -3 -10 1 -10 10 0 11 -5 15 -15 11
-8 -3 -15 0 -15 6 0 6 -6 6 -16 -3 -14 -12 -14 -14 1 -25 15 -11 11 -12 -24
-9 -22 2 -45 6 -51 10 -5 3 -7 0 -4 -9 3 -8 12 -12 20 -9 8 3 14 2 14 -1 0 -4
-11 -11 -25 -16 -14 -5 -25 -16 -25 -25 0 -8 -5 -15 -10 -15 -6 0 -8 10 -4 24
4 17 0 27 -13 35 -16 9 -16 10 -1 11 9 0 22 -8 27 -17 6 -10 10 -13 10 -8 0 6
-6 19 -14 29 -8 10 -12 23 -9 27 3 5 0 9 -6 9 -7 0 -6 5 2 14 9 10 15 11 20 2
5 -7 8 -5 8 7 0 9 4 17 9 17 5 0 7 -9 4 -20z m768 -13 c-10 -9 -11 -8 -5 6 3
10 9 15 12 12 3 -3 0 -11 -7 -18z m-711 3 c0 -5 -4 -10 -10 -10 -5 0 -10 5
-10 10 0 6 5 10 10 10 6 0 10 -4 10 -10z m1967 4 c-3 -3 -12 -4 -19 -1 -8 3
-5 6 6 6 11 1 17 -2 13 -5z m-2129 -45 c-1 -17 -10 -35 -20 -40 -10 -5 -18
-19 -18 -30 0 -11 -5 -17 -10 -14 -7 4 -7 12 0 24 5 10 6 22 2 26 -4 3 -2 6 3
5 25 -5 32 2 30 34 0 19 3 32 7 30 5 -3 7 -19 6 -35z m422 38 c0 -2 -15 -16
-32 -33 l-33 -29 29 33 c28 30 36 37 36 29z m774 -13 c4 -10 1 -14 -6 -12 -15
5 -23 28 -10 28 5 0 13 -7 16 -16z m771 8 c-3 -3 5 -17 17 -31 19 -21 17 -20
-10 3 -37 35 -36 33 -17 33 8 0 13 -3 10 -5z m-1931 -17 c-4 -8 -11 -15 -16
-15 -6 0 -5 6 2 15 7 8 14 15 16 15 2 0 1 -7 -2 -15z m1072 6 c11 9 14 8 14
-4 0 -12 -19 -27 -34 -27 -1 0 -2 10 -3 23 0 12 1 16 4 9 4 -10 8 -10 19 -1z
m60 -12 c19 -22 19 -22 -3 -10 -13 6 -23 16 -23 21 0 15 5 12 26 -11z m171 15
c-3 -3 -12 -4 -19 -1 -8 3 -5 6 6 6 11 1 17 -2 13 -5z m788 -14 c3 -6 -1 -7
-9 -4 -18 7 -21 14 -7 14 6 0 13 -4 16 -10z m-691 -16 c3 -8 2 -12 -4 -9 -6 3
-10 10 -10 16 0 14 7 11 14 -7z m126 12 c0 -2 -8 -10 -17 -17 -16 -13 -17 -12
-4 4 13 16 21 21 21 13z m554 -22 c3 -8 2 -12 -4 -9 -6 3 -10 10 -10 16 0 14
7 11 14 -7z m-972 -12 c-4 -11 -1 -14 11 -9 10 4 21 -3 32 -21 l16 -27 -20 23
c-17 20 -20 20 -23 5 -3 -14 -8 -11 -20 13 -13 24 -14 31 -3 31 8 0 11 -7 7
-15z m-1082 -17 c0 -8 -3 -14 -7 -12 -5 1 -9 -2 -10 -8 -1 -5 -12 -13 -25 -16
-13 -3 -23 -10 -22 -15 0 -5 -13 -22 -30 -39 -16 -16 -26 -24 -22 -17 4 7 2
12 -6 13 -7 0 -3 4 10 9 12 5 27 20 33 32 8 18 56 59 77 67 1 1 2 -6 2 -14z
m121 -14 c-19 -21 -27 -25 -31 -15 -4 11 -9 10 -22 -6 -18 -20 -8 -36 15 -25
6 4 4 0 -7 -9 -10 -8 -15 -20 -11 -26 3 -6 2 -9 -3 -8 -10 3 -12 -1 -12 -28 0
-8 5 -12 11 -8 8 4 9 -1 4 -16 -7 -21 -12 -43 -15 -65 -1 -5 -4 -2 -8 7 -4 11
-12 14 -20 9 -22 -14 -2 -39 35 -43 31 -4 33 -3 17 9 -23 16 -10 17 16 1 14
-9 22 -10 31 -1 12 12 49 6 49 -9 0 -5 5 -6 10 -3 6 3 10 2 10 -3 0 -19 -13
-19 -32 0 -15 15 -22 17 -34 7 -8 -6 -29 -13 -46 -15 -18 -2 -37 -9 -43 -16
-7 -8 -6 -9 3 -4 6 4 12 2 12 -3 0 -15 -13 -14 -29 2 -11 10 -12 7 -7 -16 5
-20 3 -27 -5 -22 -6 4 -15 1 -20 -6 -7 -11 -9 -10 -9 4 0 9 6 17 13 17 9 0 9
2 -1 9 -11 6 -10 10 4 15 16 6 15 8 -2 28 l-19 21 30 -19 30 -18 -18 21 c-23
26 -14 77 12 70 11 -3 17 2 18 14 1 11 -3 19 -8 19 -6 0 -7 -4 -4 -10 4 -6 -5
-10 -21 -10 -15 0 -36 -7 -46 -17 -10 -9 -18 -12 -18 -6 0 14 56 53 77 54 14
0 13 2 -5 10 -13 5 -20 14 -17 19 4 7 -3 9 -19 6 -14 -3 -26 0 -26 5 0 6 -5 7
-11 3 -8 -4 -7 -9 2 -15 11 -6 10 -9 -4 -15 -9 -3 -14 -11 -11 -16 4 -6 10 -5
15 3 13 21 12 -7 -2 -32 -8 -15 -7 -24 2 -35 10 -12 9 -13 -6 -8 -13 5 -16 4
-11 -4 4 -7 2 -12 -5 -12 -8 0 -9 10 -5 31 5 26 3 30 -10 25 -9 -3 -21 -6 -27
-7 -7 0 -3 -5 8 -10 19 -8 19 -9 1 -6 -29 3 -30 24 -1 31 26 7 35 26 13 26 -8
1 -6 6 5 14 10 8 16 20 15 27 -2 9 7 13 27 14 16 0 31 6 31 13 1 6 2 15 3 18
0 4 13 -1 27 -11 14 -9 28 -14 32 -11 3 3 1 6 -5 6 -6 0 -10 11 -9 24 1 18 4
22 14 14 11 -9 16 -4 13 14 0 4 10 5 23 2 13 -2 29 3 36 11 7 8 16 15 20 15 4
0 -4 -13 -19 -29z m1863 -44 c21 -62 19 -129 -4 -192 -10 -27 -19 -45 -19 -39
-1 6 6 31 14 54 21 61 18 126 -10 194 -13 33 -18 53 -11 45 8 -8 21 -36 30
-62z m-1814 53 c0 -5 -7 -10 -16 -10 -9 0 -12 -5 -8 -12 5 -7 3 -8 -6 -3 -10
6 -9 11 5 22 22 16 25 16 25 3z m70 0 c0 -5 -2 -10 -4 -10 -3 0 -8 5 -11 10
-3 6 -1 10 4 10 6 0 11 -4 11 -10z m38 -15 c-6 -14 -15 -25 -20 -25 -5 0 -1
11 8 25 9 14 18 25 20 25 2 0 -2 -11 -8 -25z m679 6 c-1 -16 -5 -18 -19 -10
-22 12 -24 21 -3 13 8 -4 15 -1 15 5 0 6 2 11 4 11 3 0 4 -9 3 -19z m348 10
c-9 -8 -36 -10 -30 -2 2 4 11 8 20 8 8 0 13 -3 10 -6z m-245 -11 c0 -4 -6 -12
-13 -18 -10 -8 -13 -6 -13 7 0 10 6 18 13 18 7 0 13 -4 13 -7z m-876 -15 c-5
-11 1 -13 24 -10 23 2 29 0 25 -11 -3 -8 -8 -12 -12 -10 -4 3 -18 -4 -31 -15
-15 -12 -19 -19 -10 -18 33 3 43 -1 33 -13 -6 -7 -13 -25 -17 -40 -5 -21 -10
-25 -28 -21 -21 5 -21 3 6 -21 31 -28 24 -36 -8 -11 -30 23 -44 17 -16 -6 25
-20 25 -20 1 -9 -13 7 -35 10 -50 8 -22 -3 -26 0 -26 19 0 26 10 30 19 7 3 -8
11 -12 17 -8 8 4 7 9 -2 16 -11 7 -11 8 1 7 22 -3 81 22 75 31 -3 5 -1 11 5
15 5 3 10 11 10 16 0 5 -12 2 -26 -7 -19 -13 -22 -19 -12 -25 10 -7 9 -9 -4
-9 -18 0 -24 20 -10 34 4 4 8 12 8 17 1 5 2 14 3 19 0 6 8 10 17 10 13 0 14 3
4 15 -6 8 -9 19 -5 25 9 15 15 12 9 -5z m721 -5 c-3 -5 -13 -6 -21 -3 -12 4
-13 8 -3 14 15 9 32 2 24 -11z m-49 1 c-4 -5 0 -11 6 -14 10 -3 10 -8 -1 -18
-8 -8 -11 -9 -7 -2 3 6 2 14 -4 18 -13 8 -13 25 1 25 5 0 8 -4 5 -9z m1218 -7
c3 -8 2 -12 -4 -9 -6 3 -10 10 -10 16 0 14 7 11 14 -7z m-1924 -19 c0 -21 -11
-45 -22 -45 -5 0 -7 4 -4 9 4 5 3 11 -1 14 -5 2 -2 2 5 1 6 -2 12 3 12 11 0 9
-6 12 -15 9 -15 -6 -21 7 -9 19 9 9 34 -4 34 -18z m950 15 c-18 -12 -30 -13
-30 -2 0 4 10 9 22 9 18 2 20 0 8 -7z m225 1 c3 -5 2 -12 -3 -15 -5 -3 -9 1
-9 9 0 17 3 19 12 6z m70 -1 c4 -6 -1 -7 -11 -3 -13 5 -15 3 -9 -7 5 -9 4 -11
-4 -6 -6 4 -9 12 -6 17 8 12 22 12 30 -1z m-200 -9 c3 -5 2 -12 -3 -15 -5 -3
-9 1 -9 9 0 17 3 19 12 6z m-943 -84 c-4 -78 -2 -86 32 -152 20 -39 29 -61 20
-50 -8 11 -21 19 -27 17 -7 -2 -9 -1 -5 3 8 8 -11 67 -20 61 -9 -6 -15 158 -7
184 3 11 7 20 8 20 1 0 0 -37 -1 -83z m748 79 c0 -2 -8 -10 -17 -17 -16 -13
-17 -12 -4 4 13 16 21 21 21 13z m102 -15 c-10 -6 -10 -10 3 -21 8 -7 15 -16
15 -21 0 -4 -10 2 -23 14 -21 21 -18 37 8 37 6 0 4 -4 -3 -9z m48 -7 c0 -8
-19 -13 -24 -6 -3 5 1 9 9 9 8 0 15 -2 15 -3z m90 -37 c0 -6 -9 0 -20 13 -11
13 -20 25 -20 28 0 3 9 -3 20 -13 11 -10 20 -23 20 -28z m70 27 c0 -8 -5 -12
-10 -9 -6 4 -8 11 -5 16 9 14 15 11 15 -7z m-463 -16 c-3 -8 -6 -5 -6 6 -1 11
2 17 5 13 3 -3 4 -12 1 -19z m53 7 c0 -8 -4 -15 -10 -15 -5 0 -7 7 -4 15 4 8
8 15 10 15 2 0 4 -7 4 -15z m280 0 c11 -13 10 -14 -4 -9 -9 3 -16 10 -16 15 0
13 6 11 20 -6z m237 -77 c-2 -18 -4 -6 -4 27 0 33 2 48 4 33 2 -15 2 -42 0
-60z m-1287 57 c0 -2 -7 -11 -16 -19 -18 -19 -34 -13 -34 13 0 14 6 17 25 13
14 -2 25 -6 25 -7z m1020 11 c0 -3 -4 -8 -10 -11 -5 -3 -10 -1 -10 4 0 6 5 11
10 11 6 0 10 -2 10 -4z m-1160 -27 c0 -5 -4 -9 -8 -9 -5 0 -9 7 -9 15 0 8 4
12 9 9 4 -3 8 -9 8 -15z m1028 7 c-7 -8 -15 -12 -17 -11 -5 6 10 25 20 25 5 0
4 -6 -3 -14z m152 -2 c0 -8 -5 -12 -10 -9 -6 4 -8 11 -5 16 9 14 15 11 15 -7z
m921 -30 c5 -6 4 -11 -4 -11 -7 0 -13 12 -14 26 -1 14 1 19 4 11 3 -8 10 -20
14 -26z m-1111 0 c0 -8 -5 -12 -10 -9 -6 4 -8 11 -5 16 9 14 15 11 15 -7z
m-80 -25 c0 -4 -7 -10 -16 -13 -9 -3 -12 -2 -9 5 4 5 1 17 -7 26 -12 15 -11
15 10 2 12 -8 22 -17 22 -20z m133 24 c-7 -2 -19 -2 -25 0 -7 3 -2 5 12 5 14
0 19 -2 13 -5z m117 3 c0 -3 -4 -8 -10 -11 -5 -3 -10 -1 -10 4 0 6 5 11 10 11
6 0 10 -2 10 -4z m911 -32 c5 -6 4 -11 -4 -11 -7 0 -13 12 -14 26 -1 14 1 19
4 11 3 -8 10 -20 14 -26z m-1831 7 c0 -4 -8 -7 -19 -7 -11 0 -17 6 -14 13 5
12 33 7 33 -6z m-244 -23 c-9 -12 -16 -17 -16 -10 0 14 23 42 29 37 1 -2 -4
-14 -13 -27z m961 8 c0 -7 -5 -13 -12 -13 -6 0 -11 8 -11 18 0 9 5 15 11 12 7
-2 12 -10 12 -17z m153 20 c0 -3 -4 -8 -10 -11 -5 -3 -10 -1 -10 4 0 6 5 11
10 11 6 0 10 -2 10 -4z m100 -6 c0 -5 -2 -10 -4 -10 -3 0 -8 5 -11 10 -3 6 -1
10 4 10 6 0 11 -4 11 -10z m-175 -18 c-3 -3 -11 0 -18 7 -9 10 -8 11 6 5 10
-3 15 -9 12 -12z m305 -6 c0 -2 -9 -6 -20 -9 -11 -3 -18 -1 -14 4 5 9 34 13
34 5z m-450 -36 c-6 -11 -13 -20 -16 -20 -2 0 0 9 6 20 6 11 13 20 16 20 2 0
0 -9 -6 -20z m325 11 c3 -5 0 -13 -6 -17 -8 -5 -9 -3 -4 6 6 10 4 12 -9 7 -10
-4 -15 -3 -11 3 8 13 22 13 30 1z m-358 -23 c-3 -8 -6 -5 -6 6 -1 11 2 17 5
13 3 -3 4 -12 1 -19z m403 18 c0 -2 -7 -7 -16 -10 -8 -3 -12 -2 -9 4 6 10 25
14 25 6z m-1350 -16 c-11 -7 -11 -10 -2 -10 7 0 10 -5 7 -10 -8 -13 -25 -3
-25 16 0 8 8 14 18 14 14 0 15 -2 2 -10z m60 -15 c-7 -8 -9 -15 -6 -15 4 0 1
-7 -8 -15 -8 -8 -18 -15 -22 -15 -3 0 -1 7 6 15 9 11 9 15 1 15 -7 0 -9 5 -6
10 4 6 11 8 16 5 5 -4 12 1 15 10 4 9 9 14 12 11 3 -3 -1 -12 -8 -21z m1135
15 c3 -5 1 -10 -4 -10 -6 0 -11 5 -11 10 0 6 2 10 4 10 3 0 8 -4 11 -10z
m-875 -4 c0 -3 -4 -8 -10 -11 -5 -3 -10 -1 -10 4 0 6 5 11 10 11 6 0 10 -2 10
-4z m680 -6 c0 -5 -5 -10 -11 -10 -5 0 -7 5 -4 10 3 6 8 10 11 10 2 0 4 -4 4
-10z m554 -25 l17 -30 -20 24 c-12 13 -21 28 -21 34 0 12 0 11 24 -28z m-1316
8 c-11 -14 -58 -14 -58 0 0 5 10 5 21 2 12 -4 19 -3 16 2 -3 5 3 9 13 9 14 0
16 -4 8 -13z m69 -15 c-1 -33 4 -47 21 -51 14 -4 14 -5 -3 -6 -15 -1 -23 9
-31 34 -9 27 -8 35 1 35 7 0 13 -6 12 -12z m-160 -41 c-4 -13 -47 -20 -47 -7
0 6 9 10 21 10 13 0 18 4 13 12 -4 7 -3 8 5 4 7 -4 10 -13 8 -19z m143 -8 c0
-5 -5 -9 -12 -9 -6 0 -8 3 -5 7 4 3 1 13 -6 22 -11 14 -10 14 6 2 9 -7 17 -17
17 -22z m-238 6 c12 2 15 -3 12 -18 -2 -11 -8 -25 -14 -31 -8 -8 -11 -7 -8 4
2 8 -1 14 -7 13 -5 -1 -11 10 -12 24 0 15 2 22 5 16 4 -6 15 -9 24 -8z m131 1
c4 -10 1 -13 -8 -9 -8 3 -12 9 -9 14 7 12 11 11 17 -5z m40 -7 c-6 -6 -9 -19
-6 -28 3 -11 1 -11 -7 3 -10 15 -9 20 1 27 19 12 25 11 12 -2z m1007 -3 c0 -2
-9 -6 -20 -9 -11 -3 -18 -1 -14 4 5 9 34 13 34 5z m385 -16 c10 -11 16 -20 13
-20 -3 0 -13 9 -23 20 -10 11 -16 20 -13 20 3 0 13 -9 23 -20z m-1370 0 c3 -5
1 -10 -4 -10 -6 0 -11 5 -11 10 0 6 2 10 4 10 3 0 8 -4 11 -10z m570 -6 c-26
-20 -55 -36 -55 -30 0 5 63 46 70 46 3 -1 -4 -8 -15 -16z m465 12 c0 -2 -8
-10 -17 -17 -16 -13 -17 -12 -4 4 13 16 21 21 21 13z m-940 -28 c0 -21 -9 -22
-32 -4 -24 18 -23 21 7 21 17 0 25 -5 25 -17z m121 5 c13 -16 12 -17 -3 -4
-10 7 -18 15 -18 17 0 8 8 3 21 -13z m-306 -3 c3 -6 -1 -7 -9 -4 -18 7 -21 14
-7 14 6 0 13 -4 16 -10z m211 -28 c-11 -11 -16 -12 -16 -4 0 18 24 43 29 30 2
-5 -4 -17 -13 -26z m1314 2 c0 -2 -9 0 -20 6 -11 6 -20 13 -20 16 0 2 9 0 20
-6 11 -6 20 -13 20 -16z m-1612 -15 c-2 -7 -10 -4 -18 7 -9 11 -10 15 -2 10 7
-4 12 -2 13 6 0 10 2 10 6 1 2 -7 3 -18 1 -24z m192 21 c0 -5 -4 -10 -10 -10
-5 0 -10 5 -10 10 0 6 5 10 10 10 6 0 10 -4 10 -10z m1676 -5 c-11 -8 -27 -15
-35 -15 -9 1 -2 7 14 15 39 18 44 18 21 0z m-1926 1 c0 -2 -7 -9 -15 -16 -13
-11 -14 -10 -9 4 5 14 24 23 24 12z m127 -2 c-3 -3 -12 -4 -19 -1 -8 3 -5 6 6
6 11 1 17 -2 13 -5z m153 -5 c0 -6 9 -8 21 -4 15 5 19 3 17 -8 -2 -8 8 -23 21
-34 17 -14 21 -22 13 -27 -7 -4 -12 -1 -12 10 0 13 -3 14 -14 5 -11 -9 -16 -9
-22 0 -4 8 -3 9 4 5 7 -4 12 -3 12 3 0 12 -41 42 -50 36 -4 -2 -7 2 -7 10 0 8
4 15 9 15 4 0 8 -5 8 -11z m235 -7 c-3 -3 -11 0 -18 7 -9 10 -8 11 6 5 10 -3
15 -9 12 -12z m200 -2 c-3 -5 -14 -10 -23 -10 -15 0 -15 2 -2 10 20 13 33 13
25 0z m475 6 c0 -3 -4 -8 -10 -11 -5 -3 -10 -1 -10 4 0 6 5 11 10 11 6 0 10
-2 10 -4z m549 -12 c10 -9 -35 -3 -49 6 -11 8 -7 9 15 4 17 -4 32 -8 34 -10z
m-1614 -4 c-3 -5 -14 -10 -23 -9 -14 0 -13 2 3 9 27 11 27 11 20 0z m75 0 c0
-5 -2 -10 -4 -10 -3 0 -8 5 -11 10 -3 6 -1 10 4 10 6 0 11 -4 11 -10z m357 4
c-3 -3 -12 -4 -19 -1 -8 3 -5 6 6 6 11 1 17 -2 13 -5z m228 -4 c-3 -5 -10 -10
-16 -10 -5 0 -9 5 -9 10 0 6 7 10 16 10 8 0 12 -4 9 -10z m-602 -30 c3 -11 2
-20 -3 -20 -4 0 -10 11 -12 25 -6 29 7 25 15 -5z m34 8 c-3 -8 -6 -5 -6 6 -1
11 2 17 5 13 3 -3 4 -12 1 -19z m234 -1 c-10 -9 -11 -8 -5 6 3 10 9 15 12 12
3 -3 0 -11 -7 -18z m167 16 c-10 -2 -26 -2 -35 0 -10 3 -2 5 17 5 19 0 27 -2
18 -5z m357 -5 c5 4 5 1 1 -5 -10 -18 -23 -16 -30 3 -5 13 -4 14 7 6 8 -7 18
-8 22 -4z m-155 -8 c0 -5 -5 -10 -11 -10 -5 0 -7 5 -4 10 3 6 8 10 11 10 2 0
4 -4 4 -10z m-553 -19 c0 -11 -5 -18 -9 -15 -4 3 -5 11 -1 19 7 21 12 19 10
-4z m-173 -12 c-6 -11 -24 -2 -24 11 0 5 7 7 15 4 8 -4 12 -10 9 -15z m45 2
c9 -16 8 -18 -9 -14 -21 5 -25 15 -13 26 9 10 11 9 22 -12z m411 15 c0 -2 -11
-11 -25 -20 -14 -9 -25 -13 -25 -8 0 5 10 14 23 20 27 13 27 13 27 8z m650 -6
c0 -5 -2 -10 -4 -10 -3 0 -8 5 -11 10 -3 6 -1 10 4 10 6 0 11 -4 11 -10z
m-460 -13 c0 -5 -7 -7 -15 -3 -10 4 -15 -1 -15 -16 0 -17 -3 -19 -12 -10 -8 8
-8 15 0 25 13 16 42 19 42 4z m50 -7 c11 -11 15 -22 10 -25 -14 -9 -27 1 -33
25 -6 25 -2 25 23 0z m1016 11 c-4 -5 0 -12 6 -14 8 -3 6 -6 -4 -6 -18 -1 -24
10 -11 22 9 10 15 8 9 -2z m96 -13 c-2 -10 -6 -18 -7 -18 -1 0 -5 8 -7 18 -3
11 0 19 7 19 7 0 10 -8 7 -19z m-1686 -14 c2 -12 -1 -13 -12 -3 -7 6 -11 16
-8 21 7 11 17 3 20 -18z m98 13 c4 4 4 0 0 -10 -3 -9 -11 -17 -17 -17 -7 0 -7
-4 1 -12 10 -10 16 -7 28 10 8 12 20 22 27 22 8 0 8 -3 -1 -12 -17 -17 -15
-31 4 -24 8 3 12 2 9 -4 -3 -6 -19 -10 -35 -10 -16 0 -32 -5 -36 -12 -5 -7 -2
-9 9 -5 9 3 18 0 21 -9 8 -20 -11 -17 -34 6 -17 17 -18 24 -9 41 6 11 8 28 5
36 -5 12 -4 13 7 5 8 -7 17 -9 21 -5z m130 -11 c-10 -8 -21 -12 -23 -10 -3 2
4 11 15 18 10 8 21 12 23 10 3 -2 -4 -11 -15 -18z m-41 -23 c-4 -9 -9 -9 -20
2 -18 19 -8 40 11 22 8 -6 11 -17 9 -24z m167 3 c0 5 -6 16 -12 23 -11 11 -9
11 10 2 12 -6 22 -17 23 -24 0 -7 4 -4 8 6 7 18 8 18 21 1 8 -10 10 -15 3 -11
-7 5 -16 -1 -22 -12 -15 -28 -14 -39 6 -43 14 -3 14 -5 -2 -18 -11 -9 -16 -10
-11 -2 4 7 1 15 -8 18 -9 3 -14 10 -11 14 3 5 -4 8 -15 7 -22 -1 -27 -13 -7
-20 7 -3 5 -6 -5 -6 -12 -1 -18 6 -18 20 0 15 5 19 15 15 9 -3 15 0 15 9 0 8
-7 15 -16 15 -8 0 -12 5 -8 11 4 8 -1 9 -17 4 -23 -7 -23 -6 -5 8 18 13 22 12
38 -7 9 -11 17 -16 18 -10z m187 7 c0 -9 -4 -10 -14 -2 -7 6 -13 12 -13 14 0
1 6 2 13 2 8 0 14 -6 14 -14z m987 9 c3 -5 -1 -9 -9 -9 -8 0 -12 4 -9 9 3 4 7
8 9 8 2 0 6 -4 9 -8z m-1279 -12 c3 -5 1 -10 -4 -10 -6 0 -11 5 -11 10 0 6 2
10 4 10 3 0 8 -4 11 -10z m-415 -5 c0 -2 -10 -10 -22 -16 -21 -11 -22 -11 -9
4 13 16 31 23 31 12z m1883 -4 c10 -1 9 -21 -1 -21 -5 0 -17 6 -28 14 -19 15
-19 15 1 11 11 -2 23 -4 28 -4z m-1580 -46 c-3 -9 -8 -14 -10 -11 -3 3 -2 9 2
15 9 16 15 13 8 -4z m1551 -19 c2 -14 -1 -23 -5 -20 -5 3 -9 17 -9 31 0 32 11
24 14 -11z m-239 14 c3 -5 1 -10 -4 -10 -6 0 -11 5 -11 10 0 6 2 10 4 10 3 0
8 -4 11 -10z m-1540 -10 c-3 -5 -12 -10 -18 -10 -7 0 -6 4 3 10 19 12 23 12
15 0z m321 -5 c9 -8 11 -15 6 -15 -5 0 -15 7 -22 15 -7 8 -9 15 -6 15 4 0 14
-7 22 -15z m299 6 c-10 -9 -55 -9 -55 0 0 5 13 8 30 7 16 -1 27 -4 25 -7z m61
-6 c18 -13 18 -14 -4 -8 -12 3 -25 9 -28 14 -8 14 10 11 32 -6z m-756 -15 c0
-5 -2 -10 -4 -10 -3 0 -8 5 -11 10 -3 6 -1 10 4 10 6 0 11 -4 11 -10z m506
-25 c-15 -16 -26 -22 -26 -16 0 12 42 52 48 46 2 -1 -8 -15 -22 -30z m-466 11
c0 -2 -7 -7 -16 -10 -8 -3 -12 -2 -9 4 6 10 25 14 25 6z m262 -10 c3 3 5 -6 4
-19 -1 -26 -16 -27 -16 -2 0 8 -5 17 -12 21 -8 5 -9 -2 -5 -24 4 -20 2 -32 -4
-32 -6 0 -8 4 -4 9 3 5 1 12 -5 16 -7 4 -7 13 1 26 8 15 14 18 23 10 7 -6 15
-8 18 -5z m398 5 c0 -14 -29 -21 -36 -9 -4 6 -3 8 4 4 6 -3 13 -2 17 4 8 12
15 13 15 1z m-155 -10 c3 -6 -3 -9 -14 -8 -11 0 -17 5 -15 9 7 11 22 10 29 -1z
m-465 -37 c0 -8 -5 -12 -10 -9 -6 4 -8 11 -5 16 9 14 15 11 15 -7z m590 12 c0
-11 -19 -15 -25 -6 -3 5 1 10 9 10 9 0 16 -2 16 -4z m-346 -29 c-2 -7 -15 -13
-27 -14 -21 -2 -21 -1 3 12 31 18 30 18 24 2z m166 3 c0 -5 -5 -10 -11 -10 -5
0 -7 5 -4 10 3 6 8 10 11 10 2 0 4 -4 4 -10z m45 -50 c-3 -5 -12 -10 -18 -10
-7 0 -6 4 3 10 19 12 23 12 15 0z m-520 -10 c3 -6 -1 -7 -9 -4 -18 7 -21 14
-7 14 6 0 13 -4 16 -10z m212 -552 c-2 -13 -4 -3 -4 22 0 25 2 35 4 23 2 -13
2 -33 0 -45z m-7 -58 c0 -16 -4 -30 -8 -30 -5 0 -7 14 -4 30 2 17 6 30 8 30 2
0 4 -13 4 -30z m-92 -27 c-21 -2 -57 -2 -80 0 -24 2 -7 4 37 4 44 0 63 -2 43
-4z"/>
<path d="M3966 6357 c3 -10 9 -15 12 -12 3 3 0 11 -7 18 -10 9 -11 8 -5 -6z"/>
<path d="M3930 6287 c0 -10 8 -17 18 -17 9 0 13 4 7 8 -5 4 -13 11 -17 16 -5
5 -8 2 -8 -7z"/>
<path d="M3980 6275 c0 -8 2 -15 4 -15 2 0 6 7 10 15 3 8 1 15 -4 15 -6 0 -10
-7 -10 -15z"/>
<path d="M3982 6184 c15 -15 30 -26 33 -23 2 3 -10 16 -28 29 l-32 23 27 -29z"/>
<path d="M4040 6198 c0 -4 9 -8 20 -8 11 0 20 4 20 8 0 4 -9 8 -20 8 -11 0
-20 -4 -20 -8z"/>
<path d="M4126 6183 c-14 -4 -16 -7 -6 -13 15 -9 40 -2 40 11 0 9 -3 10 -34 2z"/>
<path d="M3960 6157 c0 -7 17 -19 38 -27 20 -8 40 -16 45 -18 4 -2 7 1 7 7 0
6 -3 10 -7 9 -14 -2 -48 15 -56 29 -10 17 -27 17 -27 0z"/>
<path d="M3933 6067 c0 -8 6 -14 13 -14 7 0 10 6 7 14 -3 7 -8 13 -12 13 -4 0
-8 -6 -8 -13z"/>
<path d="M4008 6073 c6 -2 9 -10 6 -15 -4 -7 -2 -8 5 -4 13 9 5 26 -12 25 -9
0 -8 -2 1 -6z"/>
<path d="M4007 5991 c-3 -14 1 -25 13 -31 24 -13 35 3 21 27 -6 10 -11 14 -11
8 0 -5 -4 -4 -9 3 -6 10 -10 9 -14 -7z m33 -21 c0 -5 -2 -10 -4 -10 -3 0 -8 5
-11 10 -3 6 -1 10 4 10 6 0 11 -4 11 -10z"/>
<path d="M3574 6085 c-18 -14 -18 -14 4 -8 12 3 22 9 22 14 0 12 -3 11 -26 -6z"/>
<path d="M3776 6023 c-6 -14 -5 -15 5 -6 7 7 10 15 7 18 -3 3 -9 -2 -12 -12z"/>
<path d="M4195 6250 c-3 -5 1 -10 9 -10 9 0 16 5 16 10 0 6 -4 10 -9 10 -6 0
-13 -4 -16 -10z"/>
<path d="M4467 6270 c3 -11 7 -20 9 -20 2 0 4 9 4 20 0 11 -4 20 -9 20 -5 0
-7 -9 -4 -20z"/>
<path d="M3505 6189 c-9 -14 -2 -20 14 -10 8 6 9 11 3 15 -6 3 -14 1 -17 -5z"/>
<path d="M4180 6040 c0 -5 5 -10 11 -10 5 0 7 5 4 10 -3 6 -8 10 -11 10 -2 0
-4 -4 -4 -10z"/>
<path d="M4137 5999 c7 -7 15 -10 18 -7 3 3 -2 9 -12 12 -14 6 -15 5 -6 -5z"/>
<path d="M3475 5960 c-3 -5 -1 -10 4 -10 6 0 11 5 11 10 0 6 -2 10 -4 10 -3 0
-8 -4 -11 -10z"/>
<path d="M3260 5460 c0 -5 5 -10 11 -10 5 0 7 5 4 10 -3 6 -8 10 -11 10 -2 0
-4 -4 -4 -10z"/>
<path d="M3800 5270 c0 -5 5 -10 11 -10 5 0 7 5 4 10 -3 6 -8 10 -11 10 -2 0
-4 -4 -4 -10z"/>
<path d="M6955 6383 c-60 -169 -60 -169 -52 -162 4 3 25 57 47 120 22 63 43
120 45 128 3 8 8 12 10 9 3 -3 -18 -70 -46 -149 -82 -232 -112 -310 -115 -306
-2 2 10 43 26 92 16 49 28 90 26 92 -1 2 -26 -63 -54 -144 -28 -81 -50 -149
-48 -151 2 -2 12 20 21 48 9 28 19 49 22 46 3 -3 -18 -72 -46 -153 -29 -81
-54 -154 -57 -162 -2 -8 -7 -12 -9 -9 -3 3 11 51 31 107 20 57 34 105 31 107
-3 3 -24 -52 -47 -123 -50 -151 -55 -168 -36 -128 34 69 10 -9 -99 -320 -63
-181 -115 -335 -115 -342 0 -10 35 -13 159 -13 l159 0 7 28 c7 29 72 215 86
247 7 15 8 11 4 -15 l-5 -35 13 35 14 35 275 3 275 2 54 -157 54 -158 183 -3
c130 -2 182 1 182 9 0 14 -66 206 -211 609 -62 173 -163 457 -224 630 l-111
315 -200 3 -200 2 -49 -137z m499 -41 c70 -199 71 -203 58 -182 -9 14 -41 99
-77 205 -30 89 -43 117 -56 126 -8 5 -87 9 -175 9 -138 0 -163 -2 -168 -16 -7
-18 -26 -10 -26 12 0 12 32 14 193 14 l192 0 59 -168z m-429 78 c3 -5 1 -10
-4 -10 -6 0 -11 5 -11 10 0 6 2 10 4 10 3 0 8 -4 11 -10z m205 -318 c0 -29
105 -321 111 -311 4 7 9 4 12 -6 4 -9 3 -13 -3 -10 -6 3 -10 -1 -10 -9 0 -13
38 -123 65 -188 5 -13 2 -18 -11 -19 -18 0 -18 -1 1 -8 19 -8 19 -8 -1 -19
-12 -6 -23 -9 -26 -7 -3 3 -86 6 -185 7 -100 2 -185 7 -189 11 -7 7 13 74 86
282 16 44 29 74 29 66 1 -7 -24 -86 -54 -174 -30 -88 -53 -162 -51 -164 6 -6
357 -6 363 1 4 3 -75 6 -174 6 l-180 0 91 270 c50 148 93 270 96 270 3 0 18
-41 35 -91 16 -50 30 -87 32 -83 5 15 -54 188 -65 192 -6 2 -24 -40 -42 -93
-18 -53 -34 -94 -37 -92 -7 7 48 170 66 193 14 19 17 20 28 5 7 -9 13 -22 13
-29z m353 -122 c27 -74 68 -191 92 -260 24 -69 62 -177 85 -240 61 -167 180
-508 180 -514 0 -3 -78 -6 -173 -6 l-173 0 -54 160 -54 160 -281 2 -280 2 265
6 c146 3 274 3 286 2 16 -3 25 -19 43 -75 12 -40 36 -111 54 -159 l32 -88 158
0 c115 0 157 3 157 12 0 29 -55 176 -63 171 -6 -3 -7 -2 -4 3 5 9 -41 162 -63
209 -12 26 -100 272 -100 280 0 3 -18 54 -39 113 -99 269 -131 363 -130 374 1
15 -2 21 62 -152z"/>
<path d="M7272 5900 c3 -8 29 -86 58 -173 28 -87 54 -157 56 -154 5 5 -102
327 -112 336 -4 3 -5 -1 -2 -9z"/>
<path d="M8140 5735 l0 -785 170 0 170 0 0 785 0 785 -170 0 -170 0 0 -785z
m330 0 l0 -775 -160 0 -160 0 0 775 0 775 160 0 160 0 0 -775z"/>
<path d="M8160 5734 l0 -764 150 0 150 0 0 765 c0 421 -4 765 -8 765 -4 0 -14
-6 -21 -12 -11 -11 -13 -10 -7 0 6 9 -23 12 -128 11 l-136 0 0 -765z"/>
<path d="M2865 5798 c-52 -28 -126 -129 -125 -170 1 -7 7 1 16 17 l14 30 -6
-30 c-13 -64 -24 -153 -26 -210 -2 -57 -2 -56 -9 25 -6 80 -6 78 -3 -25 4
-163 42 -258 124 -313 l35 -23 3 175 c1 96 1 256 0 355 -3 176 -3 179 -23 169z
m15 -330 c0 -178 -4 -329 -9 -336 -6 -11 -16 -6 -43 22 -44 45 -76 109 -82
166 l-5 45 13 -50 c20 -77 80 -175 107 -175 5 0 9 130 9 310 0 260 -2 310 -14
310 -17 0 -68 -58 -61 -70 3 -4 -2 -10 -10 -14 -19 -7 -19 -2 0 34 14 27 72
80 88 80 4 0 7 -145 7 -322z"/>
<path d="M2732 5585 c0 -16 2 -22 5 -12 2 9 2 23 0 30 -3 6 -5 -1 -5 -18z"/>
<path d="M6645 5503 c-74 -210 -166 -470 -193 -541 -3 -10 35 -12 183 -10
l188 3 39 114 c21 62 37 116 35 118 -5 5 -77 -194 -77 -213 0 -12 -31 -14
-179 -14 l-179 0 28 78 c16 42 49 136 75 207 25 72 64 181 86 243 22 63 39
116 36 118 -2 3 -21 -44 -42 -103z"/>
<path d="M3750 4637 c-28 -15 -51 -37 -64 -62 -20 -38 -21 -55 -21 -406 l0
-366 30 -49 c40 -65 96 -94 182 -94 l63 0 0 -164 c0 -159 1 -166 24 -192 18
-22 32 -28 61 -28 36 0 47 9 224 192 l186 193 485 0 c448 -1 488 1 525 18 51
23 102 81 110 123 3 18 5 195 3 393 l-3 360 -24 34 c-13 18 -42 42 -65 52 -39
18 -83 19 -857 19 l-816 0 -43 -23z m1677 5 c6 -4 -338 -6 -765 -4 -807 3
-902 1 -902 -24 0 -8 -5 -13 -12 -11 -7 1 -12 -5 -13 -13 0 -8 -7 -15 -15 -15
-33 0 -39 -62 -39 -408 l-1 -338 25 -48 c13 -27 37 -59 52 -70 15 -12 19 -18
8 -12 -30 14 -61 51 -79 95 -14 33 -16 89 -16 375 1 349 5 387 45 431 46 51
19 50 890 50 446 0 815 -4 822 -8z m75 -39 c48 -52 48 -52 48 -430 -1 -294 -4
-363 -16 -388 -8 -16 -11 -21 -7 -10 10 24 17 706 8 752 -3 18 -21 48 -39 68
-18 19 -30 35 -27 35 4 0 19 -12 33 -27z m2 -874 c-18 -20 -65 -49 -80 -49 -6
0 86 67 95 69 2 1 -4 -8 -15 -20z m-1576 -56 c-21 -2 -55 -2 -75 0 -21 2 -4 4
37 4 41 0 58 -2 38 -4z m456 -46 c-89 -99 -301 -315 -324 -329 -34 -21 -83 -7
-98 27 -7 15 -11 68 -10 128 l1 102 6 -110 c3 -60 9 -115 13 -122 5 -6 21 -16
37 -21 24 -9 35 -6 64 14 20 13 40 30 44 38 4 7 71 80 148 161 77 81 139 152
137 157 -1 5 2 7 8 3 7 -4 -4 -23 -26 -48z m784 46 c-137 -2 -359 -2 -495 0
-137 1 -25 2 247 2 272 0 384 -1 248 -2z m-1211 -60 c-3 -10 -5 -2 -5 17 0 19
2 27 5 18 2 -10 2 -26 0 -35z m0 -45 c-3 -8 -6 -5 -6 6 -1 11 2 17 5 13 3 -3
4 -12 1 -19z"/>
<path d="M6763 4530 c0 -30 2 -43 4 -27 2 15 2 39 0 55 -2 15 -4 2 -4 -28z"/>
<path d="M8113 4510 c0 -41 2 -58 4 -37 2 20 2 54 0 75 -2 20 -4 3 -4 -38z"/>
<path d="M8831 4554 c0 -11 3 -14 6 -6 3 7 2 16 -1 19 -3 4 -6 -2 -5 -13z"/>
<path d="M10411 4554 c0 -11 3 -14 6 -6 3 7 2 16 -1 19 -3 4 -6 -2 -5 -13z"/>
<path d="M11991 4554 c0 -11 3 -14 6 -6 3 7 2 16 -1 19 -3 4 -6 -2 -5 -13z"/>
<path d="M13330 4546 c0 -2 8 -10 18 -17 15 -13 16 -12 3 4 -13 16 -21 21 -21
13z"/>
<path d="M9300 4537 c0 -2 15 -16 33 -33 l32 -29 -29 33 c-28 30 -36 37 -36
29z"/>
<path d="M9128 4443 c7 -3 16 -2 19 1 4 3 -2 6 -13 5 -11 0 -14 -3 -6 -6z"/>
<path d="M10768 4443 c7 -3 16 -2 19 1 4 3 -2 6 -13 5 -11 0 -14 -3 -6 -6z"/>
<path d="M12428 4443 c7 -3 16 -2 19 1 4 3 -2 6 -13 5 -11 0 -14 -3 -6 -6z"/>
<path d="M12708 4443 c6 -2 18 -2 25 0 6 3 1 5 -13 5 -14 0 -19 -2 -12 -5z"/>
<path d="M13158 4443 c7 -3 16 -2 19 1 4 3 -2 6 -13 5 -11 0 -14 -3 -6 -6z"/>
<path d="M6764 4340 c0 -58 1 -81 3 -52 2 28 2 76 0 105 -2 28 -3 5 -3 -53z"/>
<path d="M12121 4394 c0 -11 3 -14 6 -6 3 7 2 16 -1 19 -3 4 -6 -2 -5 -13z"/>
<path d="M13432 4355 c0 -16 2 -22 5 -12 2 9 2 23 0 30 -3 6 -5 -1 -5 -18z"/>
<path d="M13234 4258 l-19 -23 23 19 c21 18 27 26 19 26 -2 0 -12 -10 -23 -22z"/>
<path d="M8831 4224 c0 -11 3 -14 6 -6 3 7 2 16 -1 19 -3 4 -6 -2 -5 -13z"/>
<path d="M6762 4200 c0 -19 2 -27 5 -17 2 9 2 25 0 35 -3 9 -5 1 -5 -18z"/>
<path d="M8833 4160 c0 -25 2 -35 4 -22 2 12 2 32 0 45 -2 12 -4 2 -4 -23z"/>
<path d="M12882 4160 c0 -14 2 -19 5 -12 2 6 2 18 0 25 -3 6 -5 1 -5 -13z"/>
<path d="M13354 4148 l-19 -23 23 19 c21 18 27 26 19 26 -2 0 -12 -10 -23 -22z"/>
<path d="M6762 4130 c0 -19 2 -27 5 -17 2 9 2 25 0 35 -3 9 -5 1 -5 -18z"/>
<path d="M10863 4143 c9 -2 23 -2 30 0 6 3 -1 5 -18 5 -16 0 -22 -2 -12 -5z"/>
<path d="M12658 4143 c12 -2 32 -2 45 0 12 2 2 4 -23 4 -25 0 -35 -2 -22 -4z"/>
<path d="M12882 4105 c0 -16 2 -22 5 -12 2 9 2 23 0 30 -3 6 -5 -1 -5 -18z"/>
<path d="M8834 3965 c0 -77 2 -107 3 -67 2 40 2 103 0 140 -2 37 -3 4 -3 -73z"/>
<path d="M11865 4070 c-3 -5 -1 -10 4 -10 6 0 11 5 11 10 0 6 -2 10 -4 10 -3
0 -8 -4 -11 -10z"/>
<path d="M6764 3935 c0 -60 1 -84 3 -52 2 32 2 81 0 110 -2 29 -3 3 -3 -58z"/>
<path d="M12883 3975 c0 -33 2 -45 4 -27 2 18 2 45 0 60 -2 15 -4 0 -4 -33z"/>
<path d="M9146 3997 c3 -10 9 -15 12 -12 3 3 0 11 -7 18 -10 9 -11 8 -5 -6z"/>
<path d="M8378 3963 c7 -3 16 -2 19 1 4 3 -2 6 -13 5 -11 0 -14 -3 -6 -6z"/>
<path d="M8538 3963 c7 -3 16 -2 19 1 4 3 -2 6 -13 5 -11 0 -14 -3 -6 -6z"/>
<path d="M10728 3963 c18 -2 45 -2 60 0 15 2 0 4 -33 4 -33 0 -45 -2 -27 -4z"/>
<path d="M10867 3963 c18 -2 50 -2 70 0 21 2 7 4 -32 4 -38 0 -55 -2 -38 -4z"/>
<path d="M10993 3963 c9 -2 25 -2 35 0 9 3 1 5 -18 5 -19 0 -27 -2 -17 -5z"/>
<path d="M12458 3963 c7 -3 16 -2 19 1 4 3 -2 6 -13 5 -11 0 -14 -3 -6 -6z"/>
<path d="M12728 3963 c6 -2 18 -2 25 0 6 3 1 5 -13 5 -14 0 -19 -2 -12 -5z"/>
<path d="M9366 3927 c3 -10 9 -15 12 -12 3 3 0 11 -7 18 -10 9 -11 8 -5 -6z"/>
<path d="M12882 3860 c0 -14 2 -19 5 -12 2 6 2 18 0 25 -3 6 -5 1 -5 -13z"/>
<path d="M6479 3827 c4 -4 43 -7 87 -5 l79 3 -87 5 c-48 3 -83 1 -79 -3z"/>
<path d="M7845 3830 l-40 -7 43 -2 c23 0 42 4 42 9 0 6 -1 9 -2 9 -2 -1 -21
-5 -43 -9z"/>
<path d="M9238 3828 c6 -6 18 -8 28 -6 14 3 12 5 -9 10 -19 3 -25 2 -19 -4z"/>
<path d="M9850 3830 l-45 -7 42 -1 c23 -1 45 3 48 8 3 6 5 9 3 8 -2 0 -23 -4
-48 -8z"/>
<path d="M6788 3823 c7 -3 16 -2 19 1 4 3 -2 6 -13 5 -11 0 -14 -3 -6 -6z"/>
<path d="M6868 3823 c12 -2 32 -2 45 0 12 2 2 4 -23 4 -25 0 -35 -2 -22 -4z"/>
<path d="M7253 3823 c20 -2 54 -2 75 0 20 2 3 4 -38 4 -41 0 -58 -2 -37 -4z"/>
<path d="M7738 3823 c12 -2 32 -2 45 0 12 2 2 4 -23 4 -25 0 -35 -2 -22 -4z"/>
<path d="M8208 3823 c6 -2 18 -2 25 0 6 3 1 5 -13 5 -14 0 -19 -2 -12 -5z"/>
<path d="M8658 3823 c6 -2 18 -2 25 0 6 3 1 5 -13 5 -14 0 -19 -2 -12 -5z"/>
<path d="M8858 3823 c7 -3 16 -2 19 1 4 3 -2 6 -13 5 -11 0 -14 -3 -6 -6z"/>
<path d="M9723 3823 c9 -2 23 -2 30 0 6 3 -1 5 -18 5 -16 0 -22 -2 -12 -5z"/>
<path d="M10328 3823 c7 -3 16 -2 19 1 4 3 -2 6 -13 5 -11 0 -14 -3 -6 -6z"/>
<path d="M10378 3823 c7 -3 16 -2 19 1 4 3 -2 6 -13 5 -11 0 -14 -3 -6 -6z"/>
<path d="M10668 3823 c12 -2 30 -2 40 0 9 3 -1 5 -23 4 -22 0 -30 -2 -17 -4z"/>
<path d="M10843 3823 c9 -2 23 -2 30 0 6 3 -1 5 -18 5 -16 0 -22 -2 -12 -5z"/>
<path d="M10958 3823 c18 -2 45 -2 60 0 15 2 0 4 -33 4 -33 0 -45 -2 -27 -4z"/>
<path d="M11348 3823 c7 -3 16 -2 19 1 4 3 -2 6 -13 5 -11 0 -14 -3 -6 -6z"/>
<path d="M11498 3823 c7 -3 16 -2 19 1 4 3 -2 6 -13 5 -11 0 -14 -3 -6 -6z"/>
<path d="M11793 3823 c9 -2 25 -2 35 0 9 3 1 5 -18 5 -19 0 -27 -2 -17 -5z"/>
<path d="M11868 3823 c12 -2 30 -2 40 0 9 3 -1 5 -23 4 -22 0 -30 -2 -17 -4z"/>
<path d="M12273 3823 c9 -2 23 -2 30 0 6 3 -1 5 -18 5 -16 0 -22 -2 -12 -5z"/>
<path d="M12708 3823 c12 -2 30 -2 40 0 9 3 -1 5 -23 4 -22 0 -30 -2 -17 -4z"/>
<path d="M12913 3823 c9 -2 23 -2 30 0 6 3 -1 5 -18 5 -16 0 -22 -2 -12 -5z"/>
<path d="M12978 3823 c12 -2 32 -2 45 0 12 2 2 4 -23 4 -25 0 -35 -2 -22 -4z"/>
<path d="M13313 3823 c9 -2 25 -2 35 0 9 3 1 5 -18 5 -19 0 -27 -2 -17 -5z"/>
<path d="M13388 3823 c12 -2 30 -2 40 0 9 3 -1 5 -23 4 -22 0 -30 -2 -17 -4z"/>
</g>
</svg>
