<svg xmlns="http://www.w3.org/2000/svg" version="1.0" width="1024.000000pt" height="1024.000000pt" viewBox="0 0 1024.000000 1024.000000" preserveAspectRatio="xMidYMid meet">

<g transform="translate(0.000000,1024.000000) scale(0.100000,-0.100000)" fill="#000000" stroke="none">
<path d="M0 5120 l0 -5120 5120 0 5120 0 0 5120 0 5120 -5120 0 -5120 0 0 -5120z m5215 3190 c322 -22 587 -141 833 -374 188 -178 319 -430 358 -688 14 -91 15 -224 9 -1123 -7 -1114 -6 -1101 -66 -1273 -17 -48 -49 -124 -71 -170 -47 -96 -34 -104 -130 73 -36 66 -90 165 -120 220 -30 55 -126 240 -213 410 -86 171 -228 438 -314 595 -184 335 -220 381 -314 400 -119 24 -236 -20 -283 -108 -14 -26 -86 -157 -161 -292 -74 -135 -172 -319 -218 -410 -46 -91 -128 -248 -182 -350 -55 -102 -137 -255 -183 -340 -45 -85 -98 -184 -117 -218 l-35 -64 -50 104 c-59 122 -103 248 -117 338 -7 42 -11 427 -11 1101 0 1125 -1 1111 56 1291 60 189 152 339 298 484 55 55 135 124 176 153 176 124 429 222 623 240 45 5 84 9 87 9 3 1 68 -3 145 -8z m-1820 -2534 c70 -29 69 -27 76 -446 6 -406 9 -436 70 -623 61 -189 190 -412 334 -579 128 -149 371 -332 541 -406 437 -192 949 -195 1386 -8 209 89 341 179 504 341 180 179 307 389 388 636 64 196 68 236 75 650 6 358 7 378 26 399 36 41 76 50 212 49 142 -1 186 -11 217 -53 20 -26 21 -39 19 -341 -3 -436 -27 -604 -128 -895 -99 -284 -272 -549 -506 -776 -186 -180 -331 -283 -554 -390 -190 -92 -298 -127 -466 -154 -74 -11 -152 -24 -174 -28 l-40 -7 -3 -185 c-2 -102 0 -213 3 -247 l6 -61 117 -7 c252 -14 343 -31 461 -88 93 -44 204 -157 253 -257 63 -128 87 -279 52 -329 -37 -53 -1 -51 -1150 -51 -1054 0 -1067 0 -1099 20 -55 34 -66 92 -40 214 56 263 254 436 540 470 28 4 117 10 199 15 105 7 151 13 157 23 10 16 11 152 2 345 l-6 143 -31 5 c-183 29 -339 62 -424 90 -189 63 -477 220 -632 343 -138 110 -337 331 -437 484 -111 169 -221 418 -273 612 -54 205 -60 261 -62 656 -3 340 -2 368 15 394 30 45 68 55 210 56 88 0 138 -4 162 -14z m1880 -356 c81 -157 169 -327 196 -377 l50 -93 -396 0 -396 0 79 153 c44 83 132 255 197 380 64 126 118 227 120 225 1 -2 69 -131 150 -288z m539 -1057 l78 -158 -33 -27 c-74 -62 -289 -155 -441 -190 -79 -19 -123 -22 -293 -22 -213 1 -272 9 -421 59 -143 48 -334 157 -334 190 0 15 109 238 137 282 l15 23 607 0 606 0 79 -157z" />
<path d="M5035 7629 c-105 -39 -160 -149 -122 -242 22 -51 87 -103 145 -116 105 -22 217 23 253 102 25 57 24 84 -8 148 -39 76 -91 110 -174 115 -35 2 -77 -1 -94 -7z" />
<path d="M5015 6991 c-109 -49 -147 -183 -77 -270 49 -60 86 -76 177 -76 69 0 86 4 127 27 93 55 112 161 45 251 -62 81 -179 111 -272 68z" />
</g>
</svg>