<svg xmlns="http://www.w3.org/2000/svg" version="1.1" width="1024px" height="1024px" style="shape-rendering:geometricPrecision; text-rendering:geometricPrecision; image-rendering:optimizeQuality; fill-rule:evenodd; clip-rule:evenodd" xmlns:xlink="http://www.w3.org/1999/xlink">
<g></g>
<g><path style="opacity: 1;" fill="#fafafa" d="M 641.5,303.5 C 640.939,376.177 640.273,448.843 639.5,521.5C 635.995,536.194 630.495,550.194 623,563.5C 593.731,509.294 564.731,454.961 536,400.5C 526.432,384.482 513.265,380.648 496.5,389C 493.667,390.5 491.5,392.667 490,395.5C 460.755,450.992 431.255,506.325 401.5,561.5C 400.726,562.711 399.893,562.711 399,561.5C 390.981,546.936 385.481,531.602 382.5,515.5C 382.186,442.818 382.519,370.151 383.5,297.5C 394.534,247.952 424.2,214.785 472.5,198C 530.332,183.058 578.499,198.224 617,243.5C 629.968,261.578 638.135,281.578 641.5,303.5 Z" data-index="1"></path></g>
<g><path style="opacity: 1; visibility: visible; fill: rgb(0, 0, 0);" fill="#222528" d="M 505.5,259.5 C 524.131,258.627 532.631,267.294 531,285.5C 526.621,293.448 519.788,297.448 510.5,297.5C 498.692,296.355 491.692,290.021 489.5,278.5C 490.529,268.475 495.863,262.142 505.5,259.5 Z" data-index="2"></path></g>
<g><path style="opacity:1" fill="#222325" d="M 641.5,303.5 C 642.665,372.665 642.832,441.999 642,511.5C 641.825,516.373 640.992,519.706 639.5,521.5C 640.273,448.843 640.939,376.177 641.5,303.5 Z" data-index="3"></path></g>
<g><path style="opacity: 1; visibility: visible; fill: rgb(0, 0, 0);" fill="#222428" d="M 503.5,322.5 C 519.378,320.087 529.045,326.587 532.5,342C 530.089,354.053 522.589,359.886 510,359.5C 494.434,357.956 488.101,349.623 491,334.5C 493.744,328.921 497.911,324.921 503.5,322.5 Z" data-index="4"></path></g>
<g><path style="opacity: 1;" fill="#fafafa" d="M 676.5,513.5 C 676.333,493.164 676.5,472.831 677,452.5C 677.513,451.473 678.013,450.473 678.5,449.5C 679.962,448.542 681.295,447.376 682.5,446C 694.563,443.863 706.563,444.03 718.5,446.5C 720.129,447.625 721.629,448.959 723,450.5C 723.5,472.497 723.667,494.497 723.5,516.5C 714.604,599.112 672.604,658.278 597.5,694C 579.172,701.825 560.172,706.659 540.5,708.5C 539.178,708.33 538.011,708.663 537,709.5C 536.333,725.5 536.333,741.5 537,757.5C 537.671,758.252 538.504,758.586 539.5,758.5C 554.127,758.949 568.794,760.449 583.5,763C 612.832,773 627.332,793.5 627,824.5C 625.149,828.157 622.316,830.49 618.5,831.5C 546.833,831.667 475.166,831.5 403.5,831C 402.473,830.487 401.473,829.987 400.5,829.5C 398.304,828.146 396.804,826.146 396,823.5C 395.693,792.592 410.193,772.425 439.5,763C 454.718,760.398 470.051,758.898 485.5,758.5C 486.193,757.482 486.859,756.482 487.5,755.5C 487.629,739.82 487.296,724.153 486.5,708.5C 482.865,707.886 479.198,707.552 475.5,707.5C 394.184,691.902 339.017,645.236 310,567.5C 302.353,543.97 298.853,519.97 299.5,495.5C 299.2,480.785 299.533,466.118 300.5,451.5C 302.395,448.443 305.062,446.277 308.5,445C 317.833,444.333 327.167,444.333 336.5,445C 341.667,446.167 344.833,449.333 346,454.5C 346.333,477.167 346.667,499.833 347,522.5C 355.83,578.297 384.664,620.13 433.5,648C 486.309,672.835 538.975,672.502 591.5,647C 643.143,617.59 671.476,573.09 676.5,513.5 Z" data-index="5"></path></g>
<g></g>
<g><path style="opacity:1" fill="#fafafa" d="M 550.5,528.5 C 524.498,528.667 498.498,528.5 472.5,528C 474.64,524.219 476.64,520.385 478.5,516.5C 489.397,495.039 500.564,473.706 512,452.5C 525.294,478.093 538.127,503.426 550.5,528.5 Z" data-index="7"></path></g>
<g></g>
<g><path style="opacity: 1; visibility: hidden;" fill="#101316" d="M 383.5,297.5 C 382.519,370.151 382.186,442.818 382.5,515.5C 381.579,515.07 381.079,513.736 381,511.5C 380.333,444.5 380.333,377.5 381,310.5C 381.248,305.437 381.915,300.437 383,295.5C 383.464,296.094 383.631,296.761 383.5,297.5 Z" data-index="9"></path></g>
<g></g>
<g><path style="opacity:1" fill="#111417" d="M 478.5,516.5 C 476.64,520.385 474.64,524.219 472.5,528C 498.498,528.5 524.498,528.667 550.5,528.5C 524.521,530.491 498.188,531.158 471.5,530.5C 472.808,524.874 474.975,519.541 478,514.5C 478.464,515.094 478.631,515.761 478.5,516.5 Z" data-index="11"></path></g>
<g></g>
<g><path style="opacity:1" fill="#fafafa" d="M 450.5,571.5 C 491.5,571.5 532.5,571.5 573.5,571.5C 578.216,581.934 583.216,592.267 588.5,602.5C 583.138,608.008 576.804,612.175 569.5,615C 539.118,628.44 507.784,631.107 475.5,623C 461.467,618.734 448.634,612.234 437,603.5C 436.333,602.167 436.333,600.833 437,599.5C 441.784,590.267 446.284,580.933 450.5,571.5 Z" data-index="13"></path></g>
<g></g>
<g><path style="opacity: 1; visibility: hidden;" fill="#1c1d1e" d="M 540.5,708.5 C 542.527,708.338 544.527,708.505 546.5,709C 544.109,709.287 541.776,709.787 539.5,710.5C 538.334,725.822 538.167,741.156 539,756.5C 545.085,757.312 551.252,757.812 557.5,758C 551.509,758.499 545.509,758.666 539.5,758.5C 538.504,758.586 537.671,758.252 537,757.5C 536.333,741.5 536.333,725.5 537,709.5C 538.011,708.663 539.178,708.33 540.5,708.5 Z" data-index="15"></path></g>
<g><path style="opacity:1" fill="#1d1f21" d="M 400.5,829.5 C 401.473,829.987 402.473,830.487 403.5,831C 475.166,831.5 546.833,831.667 618.5,831.5C 619.239,831.369 619.906,831.536 620.5,832C 619.5,832.333 618.5,832.667 617.5,833C 546.833,833.667 476.167,833.667 405.5,833C 403.754,832.529 402.087,831.862 400.5,831C 399.262,830.31 399.262,829.81 400.5,829.5 Z" data-index="16"></path></g>
</svg>